<?xml version="1.0" encoding="UTF-8"?>
<!--Generator: Apple Native CoreSVG 149-->
<!DOCTYPE svg
PUBLIC "-//W3C//DTD SVG 1.1//EN"
       "http://www.w3.org/Graphics/SVG/1.1/DTD/svg11.dtd">
<svg version="1.1" xmlns="http://www.w3.org/2000/svg" xmlns:xlink="http://www.w3.org/1999/xlink" width="3300" height="2200">
 <!--glyph: "uni1002F1.medium", point size: 100.000000, font version: "Version 16.0d18e1", template writer version: "8"-->
 <g id="Notes">
  <rect height="2200" id="artboard" style="fill:white;opacity:1" width="3300" x="0" y="0"/>
  <line id="" style="fill:none;stroke:black;opacity:1;stroke-width:0.5;" x1="263" x2="3036" y1="292" y2="292"/>
  <text style="stroke:none;fill:black;font-family:-apple-system,&quot;SF Pro Display&quot;,&quot;SF Pro Text&quot;,Helvetica,sans-serif;font-weight:bold;" transform="matrix(1 0 0 1 263 322)">Weight/Scale Variations</text>
  <text style="stroke:none;fill:black;font-family:-apple-system,&quot;SF Pro Display&quot;,&quot;SF Pro Text&quot;,Helvetica,sans-serif;text-anchor:middle;" transform="matrix(1 0 0 1 559.711 322)">Ultralight</text>
  <text style="stroke:none;fill:black;font-family:-apple-system,&quot;SF Pro Display&quot;,&quot;SF Pro Text&quot;,Helvetica,sans-serif;text-anchor:middle;" transform="matrix(1 0 0 1 856.422 322)">Thin</text>
  <text style="stroke:none;fill:black;font-family:-apple-system,&quot;SF Pro Display&quot;,&quot;SF Pro Text&quot;,Helvetica,sans-serif;text-anchor:middle;" transform="matrix(1 0 0 1 1153.13 322)">Light</text>
  <text style="stroke:none;fill:black;font-family:-apple-system,&quot;SF Pro Display&quot;,&quot;SF Pro Text&quot;,Helvetica,sans-serif;text-anchor:middle;" transform="matrix(1 0 0 1 1449.84 322)">Regular</text>
  <text style="stroke:none;fill:black;font-family:-apple-system,&quot;SF Pro Display&quot;,&quot;SF Pro Text&quot;,Helvetica,sans-serif;text-anchor:middle;" transform="matrix(1 0 0 1 1746.56 322)">Medium</text>
  <text style="stroke:none;fill:black;font-family:-apple-system,&quot;SF Pro Display&quot;,&quot;SF Pro Text&quot;,Helvetica,sans-serif;text-anchor:middle;" transform="matrix(1 0 0 1 2043.27 322)">Semibold</text>
  <text style="stroke:none;fill:black;font-family:-apple-system,&quot;SF Pro Display&quot;,&quot;SF Pro Text&quot;,Helvetica,sans-serif;text-anchor:middle;" transform="matrix(1 0 0 1 2339.98 322)">Bold</text>
  <text style="stroke:none;fill:black;font-family:-apple-system,&quot;SF Pro Display&quot;,&quot;SF Pro Text&quot;,Helvetica,sans-serif;text-anchor:middle;" transform="matrix(1 0 0 1 2636.69 322)">Heavy</text>
  <text style="stroke:none;fill:black;font-family:-apple-system,&quot;SF Pro Display&quot;,&quot;SF Pro Text&quot;,Helvetica,sans-serif;text-anchor:middle;" transform="matrix(1 0 0 1 2933.4 322)">Black</text>
  <line id="" style="fill:none;stroke:black;opacity:1;stroke-width:0.5;" x1="263" x2="3036" y1="1903" y2="1903"/>
  <g id="" transform="matrix(1 0 0 1 263 1933)">
   <path d="M9.24805 0.830078C13.5547 0.830078 17.1387-2.74414 17.1387-7.05078C17.1387-11.3574 13.5449-14.9316 9.23828-14.9316C4.94141-14.9316 1.36719-11.3574 1.36719-7.05078C1.36719-2.74414 4.95117 0.830078 9.24805 0.830078ZM9.24805-0.654297C5.70312-0.654297 2.87109-3.49609 2.87109-7.05078C2.87109-10.6055 5.69336-13.4473 9.23828-13.4473C12.793-13.4473 15.6348-10.6055 15.6445-7.05078C15.6543-3.49609 12.8027-0.654297 9.24805-0.654297ZM6.39648-6.31836L8.50586-6.31836L8.50586-4.19922C8.50586-3.75977 8.79883-3.45703 9.22852-3.45703C9.67773-3.45703 9.9707-3.75977 9.9707-4.19922L9.9707-6.31836L12.0996-6.31836C12.5391-6.31836 12.8418-6.61133 12.8418-7.04102C12.8418-7.48047 12.5391-7.7832 12.0996-7.7832L9.9707-7.7832L9.9707-9.89258C9.9707-10.3418 9.67773-10.6445 9.22852-10.6445C8.79883-10.6445 8.50586-10.3418 8.50586-9.89258L8.50586-7.7832L6.39648-7.7832C5.94727-7.7832 5.64453-7.48047 5.64453-7.04102C5.64453-6.61133 5.94727-6.31836 6.39648-6.31836Z"/>
  </g>
  <g id="" transform="matrix(1 0 0 1 281.506 1933)">
   <path d="M11.709 2.91016C17.1582 2.91016 21.6699-1.61133 21.6699-7.05078C21.6699-12.5 17.1484-17.0117 11.6992-17.0117C6.25977-17.0117 1.74805-12.5 1.74805-7.05078C1.74805-1.61133 6.26953 2.91016 11.709 2.91016ZM11.709 1.25C7.09961 1.25 3.41797-2.44141 3.41797-7.05078C3.41797-11.6602 7.08984-15.3516 11.6992-15.3516C16.3086-15.3516 20-11.6602 20.0098-7.05078C20.0195-2.44141 16.3184 1.25 11.709 1.25ZM7.98828-6.23047L10.8789-6.23047L10.8789-3.32031C10.8789-2.83203 11.2109-2.5 11.6895-2.5C12.1777-2.5 12.5195-2.83203 12.5195-3.32031L12.5195-6.23047L15.4297-6.23047C15.918-6.23047 16.25-6.5625 16.25-7.04102C16.25-7.5293 15.918-7.87109 15.4297-7.87109L12.5195-7.87109L12.5195-10.7617C12.5195-11.2695 12.1777-11.6016 11.6895-11.6016C11.2109-11.6016 10.8789-11.2598 10.8789-10.7617L10.8789-7.87109L7.98828-7.87109C7.48047-7.87109 7.14844-7.5293 7.14844-7.04102C7.14844-6.5625 7.49023-6.23047 7.98828-6.23047Z"/>
  </g>
  <g id="" transform="matrix(1 0 0 1 304.924 1933)">
   <path d="M14.9707 5.66406C21.9336 5.66406 27.6953-0.0976562 27.6953-7.05078C27.6953-14.0137 21.9238-19.7754 14.9609-19.7754C8.00781-19.7754 2.25586-14.0137 2.25586-7.05078C2.25586-0.0976562 8.01758 5.66406 14.9707 5.66406ZM14.9707 3.84766C8.93555 3.84766 4.08203-1.01562 4.08203-7.05078C4.08203-13.0957 8.92578-17.9492 14.9609-17.9492C21.0059-17.9492 25.8594-13.0957 25.8691-7.05078C25.8789-1.01562 21.0156 3.84766 14.9707 3.84766ZM10.0586-6.14258L14.0625-6.14258L14.0625-2.12891C14.0625-1.5918 14.4336-1.2207 14.9512-1.2207C15.4883-1.2207 15.8594-1.5918 15.8594-2.12891L15.8594-6.14258L19.8828-6.14258C20.4102-6.14258 20.791-6.51367 20.791-7.03125C20.791-7.56836 20.4199-7.94922 19.8828-7.94922L15.8594-7.94922L15.8594-11.9531C15.8594-12.5098 15.4883-12.8809 14.9512-12.8809C14.4336-12.8809 14.0625-12.5 14.0625-11.9531L14.0625-7.94922L10.0586-7.94922C9.50195-7.94922 9.13086-7.56836 9.13086-7.03125C9.13086-6.51367 9.51172-6.14258 10.0586-6.14258Z"/>
  </g>
  <text style="stroke:none;fill:black;font-family:-apple-system,&quot;SF Pro Display&quot;,&quot;SF Pro Text&quot;,Helvetica,sans-serif;font-weight:bold;" transform="matrix(1 0 0 1 263 1953)">Design Variations</text>
  <text style="stroke:none;fill:black;font-family:-apple-system,&quot;SF Pro Display&quot;,&quot;SF Pro Text&quot;,Helvetica,sans-serif;" transform="matrix(1 0 0 1 263 1971)">Symbols are supported in up to nine weights and three scales.</text>
  <text style="stroke:none;fill:black;font-family:-apple-system,&quot;SF Pro Display&quot;,&quot;SF Pro Text&quot;,Helvetica,sans-serif;" transform="matrix(1 0 0 1 263 1989)">For optimal layout with text and other symbols, vertically align</text>
  <text style="stroke:none;fill:black;font-family:-apple-system,&quot;SF Pro Display&quot;,&quot;SF Pro Text&quot;,Helvetica,sans-serif;" transform="matrix(1 0 0 1 263 2007)">symbols with the adjacent text.</text>
  <line id="" style="fill:none;stroke:#00AEEF;stroke-width:0.5;opacity:1.0;" x1="776" x2="776" y1="1919" y2="1933"/>
  <g id="" transform="matrix(1 0 0 1 776 1933)">
   <path d="M3.31055 0.126953C3.82812 0.126953 4.08203-0.0683594 4.26758-0.605469L5.52734-4.0625L11.2891-4.0625L12.5488-0.605469C12.7344-0.0683594 12.9883 0.126953 13.4961 0.126953C14.0137 0.126953 14.3457-0.185547 14.3457-0.673828C14.3457-0.839844 14.3164-0.986328 14.2383-1.20117L9.6582-13.3887C9.43359-13.9941 9.0332-14.2871 8.4082-14.2871C7.80273-14.2871 7.39258-13.9941 7.17773-13.3984L2.59766-1.19141C2.51953-0.976562 2.49023-0.830078 2.49023-0.664062C2.49023-0.175781 2.80273 0.126953 3.31055 0.126953ZM6.00586-5.53711L8.37891-12.1094L8.42773-12.1094L10.8008-5.53711Z"/>
  </g>
  <line id="" style="fill:none;stroke:#00AEEF;stroke-width:0.5;opacity:1.0;" x1="792.836" x2="792.836" y1="1919" y2="1933"/>
  <text style="stroke:none;fill:black;font-family:-apple-system,&quot;SF Pro Display&quot;,&quot;SF Pro Text&quot;,Helvetica,sans-serif;font-weight:bold;" transform="matrix(1 0 0 1 776 1953)">Margins</text>
  <text style="stroke:none;fill:black;font-family:-apple-system,&quot;SF Pro Display&quot;,&quot;SF Pro Text&quot;,Helvetica,sans-serif;" transform="matrix(1 0 0 1 776 1971)">Leading and trailing margins on the left and right side of each symbol</text>
  <text style="stroke:none;fill:black;font-family:-apple-system,&quot;SF Pro Display&quot;,&quot;SF Pro Text&quot;,Helvetica,sans-serif;" transform="matrix(1 0 0 1 776 1989)">can be adjusted by modifying the x-location of the margin guidelines.</text>
  <text style="stroke:none;fill:black;font-family:-apple-system,&quot;SF Pro Display&quot;,&quot;SF Pro Text&quot;,Helvetica,sans-serif;" transform="matrix(1 0 0 1 776 2007)">Modifications are automatically applied proportionally to all</text>
  <text style="stroke:none;fill:black;font-family:-apple-system,&quot;SF Pro Display&quot;,&quot;SF Pro Text&quot;,Helvetica,sans-serif;" transform="matrix(1 0 0 1 776 2025)">scales and weights.</text>
  <g id="" transform="matrix(1 0 0 1 1289 1933)">
   <path d="M2.8418 1.86523L4.54102 3.57422C5.40039 4.44336 6.38672 4.38477 7.31445 3.35938L17.4902-7.85156C17.7539-7.76367 18.0273-7.7832 18.3398-7.8418L19.4043-8.03711L20.0684-7.36328L20.0293-6.80664C19.9902-6.30859 20.1172-5.92773 20.6055-5.44922L21.3672-4.70703C21.8457-4.22852 22.4609-4.19922 22.9297-4.66797L25.8398-7.58789C26.3086-8.05664 26.2891-8.65234 25.8105-9.13086L25.0391-9.89258C24.5605-10.3711 24.1895-10.5273 23.7109-10.4883L23.1348-10.4395L22.4902-11.0742L22.7344-12.1973C22.8613-12.7637 22.7051-13.2031 22.1191-13.7891L19.9219-15.9766C16.582-19.2969 12.1484-19.2188 9.25781-16.3281C8.83789-15.918 8.80859-15.3418 9.04297-14.9512C9.27734-14.5898 9.73633-14.3555 10.3809-14.5215C11.8457-14.8633 13.3691-14.9219 14.7949-13.9844L14.209-12.5293C14.0137-12.0508 13.9844-11.6504 14.1113-11.2891L3.04688-0.898438C2.06055 0.0195312 1.98242 0.996094 2.8418 1.86523ZM10.752-15.957C13.1836-17.7344 16.4746-17.4316 18.7012-15.2051L21.1328-12.793C21.3672-12.5586 21.4062-12.373 21.3379-12.0312L21.0156-10.5469L22.5195-9.0625L23.5059-9.12109C23.7598-9.13086 23.8379-9.11133 24.0332-8.91602L24.6094-8.33984L22.168-5.89844L21.5918-6.47461C21.3965-6.66992 21.3672-6.74805 21.377-7.01172L21.4453-7.98828L19.9512-9.47266L18.4277-9.21875C18.1055-9.15039 17.959-9.17969 17.7148-9.41406L15.7129-11.416C15.459-11.6504 15.4297-11.8164 15.5859-12.1875L16.4648-14.2773C14.9023-15.7324 12.8711-16.3574 10.8398-15.7617C10.6836-15.7227 10.625-15.8496 10.752-15.957ZM5.27344 2.30469L4.10156 1.14258C3.63281 0.683594 3.74023 0.341797 4.14062-0.0195312L14.9512-10.1953L16.416-8.71094L6.42578 2.27539C6.07422 2.67578 5.74219 2.77344 5.27344 2.30469Z"/>
  </g>
  <text style="stroke:none;fill:black;font-family:-apple-system,&quot;SF Pro Display&quot;,&quot;SF Pro Text&quot;,Helvetica,sans-serif;font-weight:bold;" transform="matrix(1 0 0 1 1289 1953)">Exporting</text>
  <text style="stroke:none;fill:black;font-family:-apple-system,&quot;SF Pro Display&quot;,&quot;SF Pro Text&quot;,Helvetica,sans-serif;" transform="matrix(1 0 0 1 1289 1971)">Symbols should be outlined when exporting to ensure the</text>
  <text style="stroke:none;fill:black;font-family:-apple-system,&quot;SF Pro Display&quot;,&quot;SF Pro Text&quot;,Helvetica,sans-serif;" transform="matrix(1 0 0 1 1289 1989)">design is preserved when submitting to Xcode.</text>
  <text id="template-version" style="stroke:none;fill:black;font-family:-apple-system,&quot;SF Pro Display&quot;,&quot;SF Pro Text&quot;,Helvetica,sans-serif;text-anchor:end;" transform="matrix(1 0 0 1 3036 1933)">Template v.2.0</text>
  <text style="stroke:none;fill:black;font-family:-apple-system,&quot;SF Pro Display&quot;,&quot;SF Pro Text&quot;,Helvetica,sans-serif;text-anchor:end;" transform="matrix(1 0 0 1 3036 1951)">Requires Xcode 12 or greater</text>
  <text style="stroke:none;fill:black;font-family:-apple-system,&quot;SF Pro Display&quot;,&quot;SF Pro Text&quot;,Helvetica,sans-serif;text-anchor:end;" transform="matrix(1 0 0 1 3036 1969)">Generated from list.dash</text>
  <text style="stroke:none;fill:black;font-family:-apple-system,&quot;SF Pro Display&quot;,&quot;SF Pro Text&quot;,Helvetica,sans-serif;text-anchor:end;" transform="matrix(1 0 0 1 3036 1987)">Typeset at 100 points</text>
  <text style="stroke:none;fill:black;font-family:-apple-system,&quot;SF Pro Display&quot;,&quot;SF Pro Text&quot;,Helvetica,sans-serif;" transform="matrix(1 0 0 1 263 726)">Small</text>
  <text style="stroke:none;fill:black;font-family:-apple-system,&quot;SF Pro Display&quot;,&quot;SF Pro Text&quot;,Helvetica,sans-serif;" transform="matrix(1 0 0 1 263 1156)">Medium</text>
  <text style="stroke:none;fill:black;font-family:-apple-system,&quot;SF Pro Display&quot;,&quot;SF Pro Text&quot;,Helvetica,sans-serif;" transform="matrix(1 0 0 1 263 1586)">Large</text>
 </g>
 <g id="Guides">
  <g id="H-reference" style="fill:#27AAE1;stroke:none;" transform="matrix(1 0 0 1 339 696)">
   <path d="M0.976562 0L3.66211 0L12.9883-24.4629L45.752-24.4629L55.127 0L57.7637 0L30.6152-70.459L28.125-70.459ZM29.3457-67.1387L29.4434-67.1387L44.873-26.709L13.8672-26.709Z"/>
  </g>
  <line id="Baseline-S" style="fill:none;stroke:#27AAE1;opacity:1;stroke-width:0.5;" x1="263" x2="3036" y1="696" y2="696"/>
  <line id="Capline-S" style="fill:none;stroke:#27AAE1;opacity:1;stroke-width:0.5;" x1="263" x2="3036" y1="625.541" y2="625.541"/>
  <g id="H-reference" style="fill:#27AAE1;stroke:none;" transform="matrix(1 0 0 1 339 1126)">
   <path d="M0.976562 0L3.66211 0L12.9883-24.4629L45.752-24.4629L55.127 0L57.7637 0L30.6152-70.459L28.125-70.459ZM29.3457-67.1387L29.4434-67.1387L44.873-26.709L13.8672-26.709Z"/>
  </g>
  <line id="Baseline-M" style="fill:none;stroke:#27AAE1;opacity:1;stroke-width:0.5;" x1="263" x2="3036" y1="1126" y2="1126"/>
  <line id="Capline-M" style="fill:none;stroke:#27AAE1;opacity:1;stroke-width:0.5;" x1="263" x2="3036" y1="1055.54" y2="1055.54"/>
  <g id="H-reference" style="fill:#27AAE1;stroke:none;" transform="matrix(1 0 0 1 339 1556)">
   <path d="M0.976562 0L3.66211 0L12.9883-24.4629L45.752-24.4629L55.127 0L57.7637 0L30.6152-70.459L28.125-70.459ZM29.3457-67.1387L29.4434-67.1387L44.873-26.709L13.8672-26.709Z"/>
  </g>
  <line id="Baseline-L" style="fill:none;stroke:#27AAE1;opacity:1;stroke-width:0.5;" x1="263" x2="3036" y1="1556" y2="1556"/>
  <line id="Capline-L" style="fill:none;stroke:#27AAE1;opacity:1;stroke-width:0.5;" x1="263" x2="3036" y1="1485.54" y2="1485.54"/>
  <line id="left-margin" style="fill:none;stroke:#00AEEF;stroke-width:0.5;opacity:1.0;" x1="1388.2" x2="1388.2" y1="1030.79" y2="1150.12"/>
  <line id="right-margin" style="fill:none;stroke:#00AEEF;stroke-width:0.5;opacity:1.0;" x1="1511.49" x2="1511.49" y1="1030.79" y2="1150.12"/>
 </g>
 <g id="Symbols">
  <g id="Black-L" transform="matrix(1 0 0 1 2847.17 1556)">
   <path d="M26.123-65.918L37.0117-65.918C42.4805-65.918 47.0703-70.4102 47.0703-75.9766C47.0703-81.543 42.4805-86.0352 37.0117-86.0352L26.123-86.0352C20.6543-86.0352 16.0645-81.543 16.0645-75.9766C16.0645-70.4102 20.6543-65.918 26.123-65.918ZM68.9941-66.6992L147.168-66.6992C152.295-66.6992 156.396-70.8008 156.396-75.9766C156.396-81.1035 152.344-85.2051 147.168-85.2051L68.9941-85.2051C63.8672-85.2051 59.7168-81.1523 59.7168-75.9766C59.7168-70.8496 63.8184-66.6992 68.9941-66.6992ZM26.123-25.0977L37.0117-25.0977C42.4805-25.0977 47.0703-29.6387 47.0703-35.2051C47.0703-40.7227 42.4805-45.2637 37.0117-45.2637L26.123-45.2637C20.6543-45.2637 16.0645-40.7227 16.0645-35.2051C16.0645-29.6387 20.6543-25.0977 26.123-25.0977ZM68.9941-25.9277L147.168-25.9277C152.295-25.9277 156.396-29.9805 156.396-35.2051C156.396-40.332 152.344-44.4336 147.168-44.4336L68.9941-44.4336C63.8672-44.4336 59.7168-40.3809 59.7168-35.2051C59.7168-30.0781 63.8184-25.9277 68.9941-25.9277ZM26.123 15.6738L37.0117 15.6738C42.4805 15.6738 47.0703 11.1328 47.0703 5.56641C47.0703 0.0488281 42.4805-4.49219 37.0117-4.49219L26.123-4.49219C20.6543-4.49219 16.0645 0.0488281 16.0645 5.56641C16.0645 11.1328 20.6543 15.6738 26.123 15.6738ZM68.9941 14.8438L147.168 14.8438C152.295 14.8438 156.396 10.791 156.396 5.56641C156.396 0.439453 152.344-3.66211 147.168-3.66211L68.9941-3.66211C63.8672-3.66211 59.7168 0.390625 59.7168 5.56641C59.7168 10.6934 63.8184 14.8438 68.9941 14.8438Z"/>
  </g>
  <g id="Heavy-L" transform="matrix(1 0 0 1 2552.19 1556)">
   <path d="M25.0977-66.2109L35.8887-66.2109C40.8203-66.2109 44.9707-70.3125 44.9707-75.2441C44.9707-80.2734 40.8203-84.3262 35.8887-84.3262L25.0977-84.3262C20.166-84.3262 16.0645-80.2734 16.0645-75.2441C16.0645-70.3125 20.166-66.2109 25.0977-66.2109ZM65.8691-67.1875L144.824-67.1875C149.365-67.1875 152.93-70.7031 152.93-75.2441C152.93-79.7852 149.365-83.3496 144.824-83.3496L65.8691-83.3496C61.377-83.3496 57.8125-79.834 57.8125-75.2441C57.8125-70.752 61.3281-67.1875 65.8691-67.1875ZM25.0977-26.123L35.8887-26.123C40.8203-26.123 44.9707-30.2246 44.9707-35.2051C44.9707-40.1855 40.8203-44.2383 35.8887-44.2383L25.0977-44.2383C20.166-44.2383 16.0645-40.1855 16.0645-35.2051C16.0645-30.2246 20.166-26.123 25.0977-26.123ZM65.8691-27.0996L144.824-27.0996C149.365-27.0996 152.93-30.6641 152.93-35.2051C152.93-39.6973 149.365-43.2617 144.824-43.2617L65.8691-43.2617C61.377-43.2617 57.8125-39.7461 57.8125-35.2051C57.8125-30.7129 61.3281-27.0996 65.8691-27.0996ZM25.0977 13.9648L35.8887 13.9648C40.8203 13.9648 44.9707 9.86328 44.9707 4.88281C44.9707-0.0976562 40.8203-4.15039 35.8887-4.15039L25.0977-4.15039C20.166-4.15039 16.0645-0.0976562 16.0645 4.88281C16.0645 9.86328 20.166 13.9648 25.0977 13.9648ZM65.8691 12.9883L144.824 12.9883C149.365 12.9883 152.93 9.42383 152.93 4.88281C152.93 0.390625 149.365-3.17383 144.824-3.17383L65.8691-3.17383C61.377-3.17383 57.8125 0.341797 57.8125 4.88281C57.8125 9.375 61.3281 12.9883 65.8691 12.9883Z"/>
  </g>
  <g id="Bold-L" transform="matrix(1 0 0 1 2257.43 1556)">
   <path d="M23.9746-66.5527L34.668-66.5527C38.9648-66.5527 42.5781-70.166 42.5781-74.5117C42.5781-78.8574 38.9648-82.4219 34.668-82.4219L23.9746-82.4219C19.6289-82.4219 16.0645-78.8574 16.0645-74.5117C16.0645-70.166 19.6289-66.5527 23.9746-66.5527ZM62.4023-67.7246L142.236-67.7246C146.045-67.7246 149.023-70.6543 149.023-74.5117C149.023-78.2715 146.045-81.25 142.236-81.25L62.4023-81.25C58.5938-81.25 55.6152-78.3203 55.6152-74.5117C55.6152-70.7031 58.5938-67.7246 62.4023-67.7246ZM23.9746-27.2461L34.668-27.2461C38.9648-27.2461 42.5781-30.8594 42.5781-35.2051C42.5781-39.5508 38.9648-43.1152 34.668-43.1152L23.9746-43.1152C19.6289-43.1152 16.0645-39.5508 16.0645-35.2051C16.0645-30.8594 19.6289-27.2461 23.9746-27.2461ZM62.4023-28.418L142.236-28.418C146.045-28.418 149.023-31.3477 149.023-35.2051C149.023-38.9648 146.045-41.9922 142.236-41.9922L62.4023-41.9922C58.5938-41.9922 55.6152-39.0137 55.6152-35.2051C55.6152-31.3965 58.5938-28.418 62.4023-28.418ZM23.9746 12.0117L34.668 12.0117C38.9648 12.0117 42.5781 8.44727 42.5781 4.10156C42.5781-0.292969 38.9648-3.80859 34.668-3.80859L23.9746-3.80859C19.6289-3.80859 16.0645-0.292969 16.0645 4.10156C16.0645 8.44727 19.6289 12.0117 23.9746 12.0117ZM62.4023 10.8887L142.236 10.8887C146.045 10.8887 149.023 7.91016 149.023 4.10156C149.023 0.341797 146.045-2.68555 142.236-2.68555L62.4023-2.68555C58.5938-2.68555 55.6152 0.292969 55.6152 4.10156C55.6152 7.91016 58.5938 10.8887 62.4023 10.8887Z"/>
  </g>
  <g id="Semibold-L" transform="matrix(1 0 0 1 1962.07 1556)">
   <path d="M23.1934-66.7969L33.7891-66.7969C37.6953-66.7969 40.918-70.0195 40.918-73.9258C40.918-77.8809 37.6953-81.1035 33.7891-81.1035L23.1934-81.1035C19.2871-81.1035 16.0645-77.8809 16.0645-73.9258C16.0645-70.0195 19.2871-66.7969 23.1934-66.7969ZM60.0098-68.0664L140.43-68.0664C143.75-68.0664 146.338-70.6543 146.338-73.9258C146.338-77.2461 143.75-79.834 140.43-79.834L60.0098-79.834C56.6895-79.834 54.1016-77.2461 54.1016-73.9258C54.1016-70.6543 56.6895-68.0664 60.0098-68.0664ZM23.1934-28.0762L33.7891-28.0762C37.6953-28.0762 40.918-31.2988 40.918-35.2051C40.918-39.1602 37.6953-42.334 33.7891-42.334L23.1934-42.334C19.2871-42.334 16.0645-39.1602 16.0645-35.2051C16.0645-31.2988 19.2871-28.0762 23.1934-28.0762ZM60.0098-29.2969L140.43-29.2969C143.75-29.2969 146.338-31.8848 146.338-35.2051C146.338-38.4766 143.75-41.0645 140.43-41.0645L60.0098-41.0645C56.6895-41.0645 54.1016-38.5254 54.1016-35.2051C54.1016-31.8848 56.6895-29.2969 60.0098-29.2969ZM23.1934 10.6934L33.7891 10.6934C37.6953 10.6934 40.918 7.4707 40.918 3.56445C40.918-0.390625 37.6953-3.56445 33.7891-3.56445L23.1934-3.56445C19.2871-3.56445 16.0645-0.390625 16.0645 3.56445C16.0645 7.4707 19.2871 10.6934 23.1934 10.6934ZM60.0098 9.47266L140.43 9.47266C143.75 9.47266 146.338 6.88477 146.338 3.56445C146.338 0.292969 143.75-2.29492 140.43-2.29492L60.0098-2.29492C56.6895-2.29492 54.1016 0.244141 54.1016 3.56445C54.1016 6.88477 56.6895 9.47266 60.0098 9.47266Z"/>
  </g>
  <g id="Medium-L" transform="matrix(1 0 0 1 1666.38 1556)">
   <path d="M22.6074-66.9922L33.1055-66.9922C36.7188-66.9922 39.6973-69.9707 39.6973-73.5352C39.6973-77.1484 36.7188-80.0781 33.1055-80.0781L22.6074-80.0781C18.9941-80.0781 16.0645-77.1484 16.0645-73.5352C16.0645-69.9707 18.9941-66.9922 22.6074-66.9922ZM58.2031-68.3105L139.062-68.3105C141.992-68.3105 144.287-70.6055 144.287-73.5352C144.287-76.4648 142.041-78.7598 139.062-78.7598L58.2031-78.7598C55.2734-78.7598 52.9785-76.4648 52.9785-73.5352C52.9785-70.6055 55.2734-68.3105 58.2031-68.3105ZM22.6074-28.6621L33.1055-28.6621C36.7188-28.6621 39.6973-31.5918 39.6973-35.2051C39.6973-38.8184 36.7188-41.748 33.1055-41.748L22.6074-41.748C18.9941-41.748 16.0645-38.8184 16.0645-35.2051C16.0645-31.5918 18.9941-28.6621 22.6074-28.6621ZM58.2031-29.9805L139.062-29.9805C141.992-29.9805 144.287-32.2266 144.287-35.2051C144.287-38.1348 142.041-40.3809 139.062-40.3809L58.2031-40.3809C55.2734-40.3809 52.9785-38.1348 52.9785-35.2051C52.9785-32.2754 55.2734-29.9805 58.2031-29.9805ZM22.6074 9.7168L33.1055 9.7168C36.7188 9.7168 39.6973 6.73828 39.6973 3.17383C39.6973-0.488281 36.7188-3.36914 33.1055-3.36914L22.6074-3.36914C18.9941-3.36914 16.0645-0.488281 16.0645 3.17383C16.0645 6.73828 18.9941 9.7168 22.6074 9.7168ZM58.2031 8.39844L139.062 8.39844C141.992 8.39844 144.287 6.10352 144.287 3.17383C144.287 0.244141 142.041-2.05078 139.062-2.05078L58.2031-2.05078C55.2734-2.05078 52.9785 0.244141 52.9785 3.17383C52.9785 6.10352 55.2734 8.39844 58.2031 8.39844Z"/>
  </g>
  <g id="Regular-L" transform="matrix(1 0 0 1 1370.99 1556)">
   <path d="M21.8262-67.2363L32.2754-67.2363C35.4492-67.2363 38.0859-69.873 38.0859-72.998C38.0859-76.2207 35.4492-78.7598 32.2754-78.7598L21.8262-78.7598C18.6523-78.7598 16.0645-76.2207 16.0645-72.998C16.0645-69.873 18.6523-67.2363 21.8262-67.2363ZM55.8105-68.7012L137.305-68.7012C139.746-68.7012 141.65-70.5566 141.65-72.998C141.65-75.4395 139.746-77.3438 137.305-77.3438L55.8105-77.3438C53.3691-77.3438 51.5137-75.4395 51.5137-72.998C51.5137-70.5566 53.3691-68.7012 55.8105-68.7012ZM21.8262-29.4434L32.2754-29.4434C35.4492-29.4434 38.0859-32.0312 38.0859-35.2051C38.0859-38.3789 35.4492-40.9668 32.2754-40.9668L21.8262-40.9668C18.6523-40.9668 16.0645-38.3789 16.0645-35.2051C16.0645-32.0312 18.6523-29.4434 21.8262-29.4434ZM55.8105-30.8594L137.305-30.8594C139.746-30.8594 141.65-32.7637 141.65-35.2051C141.65-37.6465 139.746-39.502 137.305-39.502L55.8105-39.502C53.3691-39.502 51.5137-37.6465 51.5137-35.2051C51.5137-32.7637 53.3691-30.8594 55.8105-30.8594ZM21.8262 8.39844L32.2754 8.39844C35.4492 8.39844 38.0859 5.81055 38.0859 2.63672C38.0859-0.585938 35.4492-3.125 32.2754-3.125L21.8262-3.125C18.6523-3.125 16.0645-0.585938 16.0645 2.63672C16.0645 5.81055 18.6523 8.39844 21.8262 8.39844ZM55.8105 6.93359L137.305 6.93359C139.746 6.93359 141.65 5.07812 141.65 2.63672C141.65 0.195312 139.746-1.70898 137.305-1.70898L55.8105-1.70898C53.3691-1.70898 51.5137 0.195312 51.5137 2.63672C51.5137 5.07812 53.3691 6.93359 55.8105 6.93359Z"/>
  </g>
  <g id="Light-L" transform="matrix(1 0 0 1 1075.2 1556)">
   <path d="M21.1914-67.5781L31.1523-67.5781C33.9844-67.5781 36.2793-69.873 36.2793-72.6562C36.2793-75.4395 33.9844-77.7344 31.1523-77.7344L21.1914-77.7344C18.3594-77.7344 16.0645-75.4395 16.0645-72.6562C16.0645-69.873 18.3594-67.5781 21.1914-67.5781ZM52.6855-69.3359L136.475-69.3359C138.379-69.3359 139.795-70.752 139.795-72.6562C139.795-74.5117 138.379-75.9277 136.475-75.9277L52.6855-75.9277C50.7812-75.9277 49.3652-74.5117 49.3652-72.6562C49.3652-70.752 50.7812-69.3359 52.6855-69.3359ZM21.1914-30.127L31.1523-30.127C33.9844-30.127 36.2793-32.4219 36.2793-35.2051C36.2793-37.9883 33.9844-40.2832 31.1523-40.2832L21.1914-40.2832C18.3594-40.2832 16.0645-37.9883 16.0645-35.2051C16.0645-32.4219 18.3594-30.127 21.1914-30.127ZM52.6855-31.8848L136.475-31.8848C138.379-31.8848 139.795-33.3008 139.795-35.2051C139.795-37.0605 138.379-38.4766 136.475-38.4766L52.6855-38.4766C50.7812-38.4766 49.3652-37.0605 49.3652-35.2051C49.3652-33.3008 50.7812-31.8848 52.6855-31.8848ZM21.1914 7.32422L31.1523 7.32422C33.9844 7.32422 36.2793 5.0293 36.2793 2.24609C36.2793-0.537109 33.9844-2.83203 31.1523-2.83203L21.1914-2.83203C18.3594-2.83203 16.0645-0.537109 16.0645 2.24609C16.0645 5.0293 18.3594 7.32422 21.1914 7.32422ZM52.6855 5.56641L136.475 5.56641C138.379 5.56641 139.795 4.15039 139.795 2.24609C139.795 0.390625 138.379-1.02539 136.475-1.02539L52.6855-1.02539C50.7812-1.02539 49.3652 0.390625 49.3652 2.24609C49.3652 4.15039 50.7812 5.56641 52.6855 5.56641Z"/>
  </g>
  <g id="Thin-L" transform="matrix(1 0 0 1 779.713 1556)">
   <path d="M20.3125-67.9688L29.6387-67.9688C32.0312-67.9688 33.8867-69.873 33.8867-72.168C33.8867-74.4629 32.0312-76.3184 29.6387-76.3184L20.3125-76.3184C18.0176-76.3184 16.0645-74.4629 16.0645-72.168C16.0645-69.873 18.0176-67.9688 20.3125-67.9688ZM48.5352-70.166L135.4-70.166C136.523-70.166 137.354-70.9961 137.354-72.168C137.354-73.291 136.523-74.1211 135.4-74.1211L48.5352-74.1211C47.3633-74.1211 46.582-73.291 46.582-72.168C46.582-70.9961 47.3633-70.166 48.5352-70.166ZM20.3125-31.0059L29.6387-31.0059C32.0312-31.0059 33.8867-32.9102 33.8867-35.2051C33.8867-37.5 32.0312-39.3555 29.6387-39.3555L20.3125-39.3555C18.0176-39.3555 16.0645-37.5 16.0645-35.2051C16.0645-32.9102 18.0176-31.0059 20.3125-31.0059ZM48.5352-33.2031L135.4-33.2031C136.523-33.2031 137.354-34.0332 137.354-35.2051C137.354-36.3281 136.523-37.1582 135.4-37.1582L48.5352-37.1582C47.3633-37.1582 46.582-36.3281 46.582-35.2051C46.582-34.0332 47.3633-33.2031 48.5352-33.2031ZM20.3125 5.95703L29.6387 5.95703C32.0312 5.95703 33.8867 4.05273 33.8867 1.75781C33.8867-0.537109 32.0312-2.39258 29.6387-2.39258L20.3125-2.39258C18.0176-2.39258 16.0645-0.537109 16.0645 1.75781C16.0645 4.05273 18.0176 5.95703 20.3125 5.95703ZM48.5352 3.75977L135.4 3.75977C136.523 3.75977 137.354 2.92969 137.354 1.75781C137.354 0.634766 136.523-0.195312 135.4-0.195312L48.5352-0.195312C47.3633-0.195312 46.582 0.634766 46.582 1.75781C46.582 2.92969 47.3633 3.75977 48.5352 3.75977Z"/>
  </g>
  <g id="Ultralight-L" transform="matrix(1 0 0 1 483.637 1556)">
   <path d="M19.873-68.1641L28.9062-68.1641C31.0059-68.1641 32.666-69.873 32.666-71.9238C32.666-73.9258 31.0059-75.6348 28.9062-75.6348L19.873-75.6348C17.8223-75.6348 16.0645-73.9258 16.0645-71.9238C16.0645-69.873 17.8223-68.1641 19.873-68.1641ZM46.3867-70.6055L134.814-70.6055C135.596-70.6055 136.084-71.0938 136.084-71.9238C136.084-72.7051 135.596-73.1934 134.814-73.1934L46.3867-73.1934C45.6055-73.1934 45.1172-72.7051 45.1172-71.9238C45.1172-71.0938 45.6055-70.6055 46.3867-70.6055ZM19.873-31.4941L28.9062-31.4941C31.0059-31.4941 32.666-33.1543 32.666-35.2051C32.666-37.2559 31.0059-38.916 28.9062-38.916L19.873-38.916C17.8223-38.916 16.0645-37.2559 16.0645-35.2051C16.0645-33.1543 17.8223-31.4941 19.873-31.4941ZM46.3867-33.9355L134.814-33.9355C135.596-33.9355 136.084-34.4238 136.084-35.2051C136.084-35.9863 135.596-36.4746 134.814-36.4746L46.3867-36.4746C45.6055-36.4746 45.1172-35.9863 45.1172-35.2051C45.1172-34.4238 45.6055-33.9355 46.3867-33.9355ZM19.873 5.22461L28.9062 5.22461C31.0059 5.22461 32.666 3.56445 32.666 1.51367C32.666-0.537109 31.0059-2.19727 28.9062-2.19727L19.873-2.19727C17.8223-2.19727 16.0645-0.537109 16.0645 1.51367C16.0645 3.56445 17.8223 5.22461 19.873 5.22461ZM46.3867 2.7832L134.814 2.7832C135.596 2.7832 136.084 2.29492 136.084 1.51367C136.084 0.732422 135.596 0.244141 134.814 0.244141L46.3867 0.244141C45.6055 0.244141 45.1172 0.732422 45.1172 1.51367C45.1172 2.29492 45.6055 2.7832 46.3867 2.7832Z"/>
  </g>
  <g id="Black-M" transform="matrix(1 0 0 1 2864.7 1126)">
   <path d="M21.2402-58.7402L29.5898-58.7402C34.375-58.7402 38.4277-62.6953 38.4277-67.5293C38.4277-72.3633 34.375-76.3672 29.5898-76.3672L21.2402-76.3672C16.5039-76.3672 12.4512-72.3633 12.4512-67.5293C12.4512-62.6953 16.5039-58.7402 21.2402-58.7402ZM55.957-59.375L116.748-59.375C121.289-59.375 124.951-62.9395 124.951-67.5293C124.951-72.0703 121.338-75.7324 116.748-75.7324L55.957-75.7324C51.416-75.7324 47.8027-72.1191 47.8027-67.5293C47.8027-62.9883 51.3672-59.375 55.957-59.375ZM21.2402-26.3672L29.5898-26.3672C34.375-26.3672 38.4277-30.3711 38.4277-35.2051C38.4277-40.0391 34.375-43.9941 29.5898-43.9941L21.2402-43.9941C16.5039-43.9941 12.4512-40.0391 12.4512-35.2051C12.4512-30.3711 16.5039-26.3672 21.2402-26.3672ZM55.957-27.002L116.748-27.002C121.289-27.002 124.951-30.6152 124.951-35.2051C124.951-39.7461 121.338-43.4082 116.748-43.4082L55.957-43.4082C51.416-43.4082 47.8027-39.7949 47.8027-35.2051C47.8027-30.6641 51.3672-27.002 55.957-27.002ZM21.2402 5.95703L29.5898 5.95703C34.375 5.95703 38.4277 2.00195 38.4277-2.83203C38.4277-7.71484 34.375-11.6699 29.5898-11.6699L21.2402-11.6699C16.5039-11.6699 12.4512-7.71484 12.4512-2.83203C12.4512 2.00195 16.5039 5.95703 21.2402 5.95703ZM55.957 5.32227L116.748 5.32227C121.289 5.32227 124.951 1.75781 124.951-2.83203C124.951-7.37305 121.338-11.0352 116.748-11.0352L55.957-11.0352C51.416-11.0352 47.8027-7.4707 47.8027-2.83203C47.8027 1.66016 51.3672 5.32227 55.957 5.32227Z"/>
  </g>
  <g id="Heavy-M" transform="matrix(1 0 0 1 2569.65 1126)">
   <path d="M20.3125-58.9844L28.6621-58.9844C32.959-58.9844 36.5723-62.5488 36.5723-66.8945C36.5723-71.2402 32.959-74.7559 28.6621-74.7559L20.3125-74.7559C16.0156-74.7559 12.4512-71.2402 12.4512-66.8945C12.4512-62.5488 16.0156-58.9844 20.3125-58.9844ZM53.418-59.7168L114.404-59.7168C118.408-59.7168 121.631-62.8418 121.631-66.8945C121.631-70.8496 118.457-74.0723 114.404-74.0723L53.418-74.0723C49.4141-74.0723 46.1914-70.8984 46.1914-66.8945C46.1914-62.8906 49.3652-59.7168 53.418-59.7168ZM20.3125-27.3438L28.6621-27.3438C32.959-27.3438 36.5723-30.8594 36.5723-35.2051C36.5723-39.5508 32.959-43.0664 28.6621-43.0664L20.3125-43.0664C16.0156-43.0664 12.4512-39.5508 12.4512-35.2051C12.4512-30.8594 16.0156-27.3438 20.3125-27.3438ZM53.418-28.0273L114.404-28.0273C118.408-28.0273 121.631-31.1523 121.631-35.2051C121.631-39.1602 118.457-42.3828 114.404-42.3828L53.418-42.3828C49.4141-42.3828 46.1914-39.209 46.1914-35.2051C46.1914-31.2012 49.3652-28.0273 53.418-28.0273ZM20.3125 4.3457L28.6621 4.3457C32.959 4.3457 36.5723 0.830078 36.5723-3.51562C36.5723-7.86133 32.959-11.377 28.6621-11.377L20.3125-11.377C16.0156-11.377 12.4512-7.86133 12.4512-3.51562C12.4512 0.830078 16.0156 4.3457 20.3125 4.3457ZM53.418 3.66211L114.404 3.66211C118.408 3.66211 121.631 0.537109 121.631-3.51562C121.631-7.51953 118.457-10.6934 114.404-10.6934L53.418-10.6934C49.4141-10.6934 46.1914-7.56836 46.1914-3.51562C46.1914 0.488281 49.3652 3.66211 53.418 3.66211Z"/>
  </g>
  <g id="Bold-M" transform="matrix(1 0 0 1 2274.82 1126)">
   <path d="M19.2871-59.2773L27.6367-59.2773C31.3477-59.2773 34.4727-62.4023 34.4727-66.1133C34.4727-69.9219 31.3477-72.9492 27.6367-72.9492L19.2871-72.9492C15.5273-72.9492 12.4512-69.9219 12.4512-66.1133C12.4512-62.4023 15.5273-59.2773 19.2871-59.2773ZM50.5371-60.0586L111.816-60.0586C115.186-60.0586 117.871-62.7441 117.871-66.1133C117.871-69.4824 115.234-72.168 111.816-72.168L50.5371-72.168C47.1191-72.168 44.4336-69.5312 44.4336-66.1133C44.4336-62.7441 47.1191-60.0586 50.5371-60.0586ZM19.2871-28.3691L27.6367-28.3691C31.3477-28.3691 34.4727-31.4453 34.4727-35.2051C34.4727-38.9648 31.3477-42.041 27.6367-42.041L19.2871-42.041C15.5273-42.041 12.4512-38.9648 12.4512-35.2051C12.4512-31.4453 15.5273-28.3691 19.2871-28.3691ZM50.5371-29.1504L111.816-29.1504C115.186-29.1504 117.871-31.7871 117.871-35.2051C117.871-38.5742 115.234-41.2598 111.816-41.2598L50.5371-41.2598C47.1191-41.2598 44.4336-38.623 44.4336-35.2051C44.4336-31.8359 47.1191-29.1504 50.5371-29.1504ZM19.2871 2.58789L27.6367 2.58789C31.3477 2.58789 34.4727-0.537109 34.4727-4.24805C34.4727-8.05664 31.3477-11.084 27.6367-11.084L19.2871-11.084C15.5273-11.084 12.4512-8.05664 12.4512-4.24805C12.4512-0.537109 15.5273 2.58789 19.2871 2.58789ZM50.5371 1.80664L111.816 1.80664C115.186 1.80664 117.871-0.878906 117.871-4.24805C117.871-7.61719 115.234-10.3027 111.816-10.3027L50.5371-10.3027C47.1191-10.3027 44.4336-7.66602 44.4336-4.24805C44.4336-0.878906 47.1191 1.80664 50.5371 1.80664Z"/>
  </g>
  <g id="Semibold-M" transform="matrix(1 0 0 1 1979.38 1126)">
   <path d="M18.5547-59.5215L26.9043-59.5215C30.2734-59.5215 33.0078-62.2559 33.0078-65.625C33.0078-68.9941 30.2734-71.7285 26.9043-71.7285L18.5547-71.7285C15.1855-71.7285 12.4512-68.9941 12.4512-65.625C12.4512-62.2559 15.1855-59.5215 18.5547-59.5215ZM48.5352-60.3516L110.01-60.3516C112.988-60.3516 115.332-62.6465 115.332-65.625C115.332-68.5547 112.988-70.8984 110.01-70.8984L48.5352-70.8984C45.5566-70.8984 43.2617-68.6035 43.2617-65.625C43.2617-62.6465 45.5566-60.3516 48.5352-60.3516ZM18.5547-29.1016L26.9043-29.1016C30.2734-29.1016 33.0078-31.8359 33.0078-35.2051C33.0078-38.5742 30.2734-41.3086 26.9043-41.3086L18.5547-41.3086C15.1855-41.3086 12.4512-38.5742 12.4512-35.2051C12.4512-31.8359 15.1855-29.1016 18.5547-29.1016ZM48.5352-29.9316L110.01-29.9316C112.988-29.9316 115.332-32.2266 115.332-35.2051C115.332-38.1348 112.988-40.4785 110.01-40.4785L48.5352-40.4785C45.5566-40.4785 43.2617-38.1836 43.2617-35.2051C43.2617-32.2266 45.5566-29.9316 48.5352-29.9316ZM18.5547 1.31836L26.9043 1.31836C30.2734 1.31836 33.0078-1.41602 33.0078-4.78516C33.0078-8.1543 30.2734-10.8887 26.9043-10.8887L18.5547-10.8887C15.1855-10.8887 12.4512-8.1543 12.4512-4.78516C12.4512-1.41602 15.1855 1.31836 18.5547 1.31836ZM48.5352 0.488281L110.01 0.488281C112.988 0.488281 115.332-1.80664 115.332-4.78516C115.332-7.71484 112.988-10.0586 110.01-10.0586L48.5352-10.0586C45.5566-10.0586 43.2617-7.76367 43.2617-4.78516C43.2617-1.80664 45.5566 0.488281 48.5352 0.488281Z"/>
  </g>
  <g id="Medium-M" transform="matrix(1 0 0 1 1683.64 1126)">
   <path d="M17.9688-59.668L26.3672-59.668C29.3945-59.668 31.9336-62.1582 31.9336-65.2344C31.9336-68.3105 29.3945-70.8008 26.3672-70.8008L17.9688-70.8008C14.9414-70.8008 12.4512-68.3105 12.4512-65.2344C12.4512-62.1582 14.9414-59.668 17.9688-59.668ZM47.0215-60.5469L108.643-60.5469C111.279-60.5469 113.379-62.5977 113.379-65.2344C113.379-67.8711 111.328-69.9219 108.643-69.9219L47.0215-69.9219C44.3848-69.9219 42.334-67.8711 42.334-65.2344C42.334-62.5977 44.3848-60.5469 47.0215-60.5469ZM17.9688-29.6387L26.3672-29.6387C29.3945-29.6387 31.9336-32.1289 31.9336-35.2051C31.9336-38.2812 29.3945-40.7715 26.3672-40.7715L17.9688-40.7715C14.9414-40.7715 12.4512-38.2812 12.4512-35.2051C12.4512-32.1289 14.9414-29.6387 17.9688-29.6387ZM47.0215-30.5176L108.643-30.5176C111.279-30.5176 113.379-32.5684 113.379-35.2051C113.379-37.8418 111.328-39.8926 108.643-39.8926L47.0215-39.8926C44.3848-39.8926 42.334-37.8418 42.334-35.2051C42.334-32.5684 44.3848-30.5176 47.0215-30.5176ZM17.9688 0.390625L26.3672 0.390625C29.3945 0.390625 31.9336-2.09961 31.9336-5.17578C31.9336-8.25195 29.3945-10.7422 26.3672-10.7422L17.9688-10.7422C14.9414-10.7422 12.4512-8.25195 12.4512-5.17578C12.4512-2.09961 14.9414 0.390625 17.9688 0.390625ZM47.0215-0.488281L108.643-0.488281C111.279-0.488281 113.379-2.53906 113.379-5.17578C113.379-7.8125 111.328-9.86328 108.643-9.86328L47.0215-9.86328C44.3848-9.86328 42.334-7.8125 42.334-5.17578C42.334-2.53906 44.3848-0.488281 47.0215-0.488281Z"/>
  </g>
  <g id="Regular-M" transform="matrix(1 0 0 1 1388.2 1126)">
   <path d="M17.2852-59.8633L25.6348-59.8633C28.3203-59.8633 30.5176-62.0605 30.5176-64.6973C30.5176-67.4316 28.3203-69.5801 25.6348-69.5801L17.2852-69.5801C14.5996-69.5801 12.4512-67.4316 12.4512-64.6973C12.4512-62.0605 14.5996-59.8633 17.2852-59.8633ZM45.0684-60.791L106.885-60.791C109.082-60.791 110.84-62.5 110.84-64.6973C110.84-66.9434 109.082-68.6523 106.885-68.6523L45.0684-68.6523C42.8223-68.6523 41.1133-66.9434 41.1133-64.6973C41.1133-62.5 42.8223-60.791 45.0684-60.791ZM17.2852-30.3223L25.6348-30.3223C28.3203-30.3223 30.5176-32.5195 30.5176-35.2051C30.5176-37.8906 28.3203-40.0391 25.6348-40.0391L17.2852-40.0391C14.5996-40.0391 12.4512-37.8906 12.4512-35.2051C12.4512-32.5195 14.5996-30.3223 17.2852-30.3223ZM45.0684-31.25L106.885-31.25C109.082-31.25 110.84-33.0078 110.84-35.2051C110.84-37.4023 109.082-39.1113 106.885-39.1113L45.0684-39.1113C42.8223-39.1113 41.1133-37.4023 41.1133-35.2051C41.1133-33.0078 42.8223-31.25 45.0684-31.25ZM17.2852-0.830078L25.6348-0.830078C28.3203-0.830078 30.5176-3.02734 30.5176-5.66406C30.5176-8.39844 28.3203-10.5469 25.6348-10.5469L17.2852-10.5469C14.5996-10.5469 12.4512-8.39844 12.4512-5.66406C12.4512-3.02734 14.5996-0.830078 17.2852-0.830078ZM45.0684-1.75781L106.885-1.75781C109.082-1.75781 110.84-3.4668 110.84-5.66406C110.84-7.91016 109.082-9.61914 106.885-9.61914L45.0684-9.61914C42.8223-9.61914 41.1133-7.91016 41.1133-5.66406C41.1133-3.4668 42.8223-1.75781 45.0684-1.75781Z"/>
  </g>
  <g id="Light-M" transform="matrix(1 0 0 1 1092.32 1126)">
   <path d="M16.6992-60.1562L24.6582-60.1562C27.002-60.1562 28.9062-62.0605 28.9062-64.4043C28.9062-66.748 27.002-68.6523 24.6582-68.6523L16.6992-68.6523C14.3555-68.6523 12.4512-66.748 12.4512-64.4043C12.4512-62.0605 14.3555-60.1562 16.6992-60.1562ZM42.2363-61.377L106.152-61.377C107.861-61.377 109.18-62.6953 109.18-64.4043C109.18-66.1133 107.861-67.3828 106.152-67.3828L42.2363-67.3828C40.5273-67.3828 39.209-66.1133 39.209-64.4043C39.209-62.6953 40.5273-61.377 42.2363-61.377ZM16.6992-30.957L24.6582-30.957C27.002-30.957 28.9062-32.8613 28.9062-35.2051C28.9062-37.5488 27.002-39.4531 24.6582-39.4531L16.6992-39.4531C14.3555-39.4531 12.4512-37.5488 12.4512-35.2051C12.4512-32.8613 14.3555-30.957 16.6992-30.957ZM42.2363-32.1777L106.152-32.1777C107.861-32.1777 109.18-33.4961 109.18-35.2051C109.18-36.9141 107.861-38.2324 106.152-38.2324L42.2363-38.2324C40.5273-38.2324 39.209-36.9141 39.209-35.2051C39.209-33.4961 40.5273-32.1777 42.2363-32.1777ZM16.6992-1.75781L24.6582-1.75781C27.002-1.75781 28.9062-3.66211 28.9062-6.00586C28.9062-8.34961 27.002-10.2539 24.6582-10.2539L16.6992-10.2539C14.3555-10.2539 12.4512-8.34961 12.4512-6.00586C12.4512-3.66211 14.3555-1.75781 16.6992-1.75781ZM42.2363-2.97852L106.152-2.97852C107.861-2.97852 109.18-4.29688 109.18-6.00586C109.18-7.71484 107.861-9.0332 106.152-9.0332L42.2363-9.0332C40.5273-9.0332 39.209-7.71484 39.209-6.00586C39.209-4.29688 40.5273-2.97852 42.2363-2.97852Z"/>
  </g>
  <g id="Thin-M" transform="matrix(1 0 0 1 796.705 1126)">
   <path d="M15.918-60.498L23.291-60.498C25.2441-60.498 26.8066-62.0605 26.8066-63.9648C26.8066-65.8691 25.2441-67.3828 23.291-67.3828L15.918-67.3828C14.0625-67.3828 12.4512-65.8691 12.4512-63.9648C12.4512-62.0605 14.0625-60.498 15.918-60.498ZM38.5254-62.1582L105.176-62.1582C106.201-62.1582 106.982-62.8906 106.982-63.9648C106.982-64.9902 106.201-65.7715 105.176-65.7715L38.5254-65.7715C37.4512-65.7715 36.7188-64.9902 36.7188-63.9648C36.7188-62.8906 37.4512-62.1582 38.5254-62.1582ZM15.918-31.7871L23.291-31.7871C25.2441-31.7871 26.8066-33.3008 26.8066-35.2051C26.8066-37.1094 25.2441-38.623 23.291-38.623L15.918-38.623C14.0625-38.623 12.4512-37.1094 12.4512-35.2051C12.4512-33.3008 14.0625-31.7871 15.918-31.7871ZM38.5254-33.3984L105.176-33.3984C106.201-33.3984 106.982-34.1309 106.982-35.2051C106.982-36.2793 106.201-37.0117 105.176-37.0117L38.5254-37.0117C37.4512-37.0117 36.7188-36.2793 36.7188-35.2051C36.7188-34.1309 37.4512-33.3984 38.5254-33.3984ZM15.918-3.02734L23.291-3.02734C25.2441-3.02734 26.8066-4.54102 26.8066-6.44531C26.8066-8.34961 25.2441-9.86328 23.291-9.86328L15.918-9.86328C14.0625-9.86328 12.4512-8.34961 12.4512-6.44531C12.4512-4.54102 14.0625-3.02734 15.918-3.02734ZM38.5254-4.63867L105.176-4.63867C106.201-4.63867 106.982-5.37109 106.982-6.44531C106.982-7.51953 106.201-8.25195 105.176-8.25195L38.5254-8.25195C37.4512-8.25195 36.7188-7.51953 36.7188-6.44531C36.7188-5.37109 37.4512-4.63867 38.5254-4.63867Z"/>
  </g>
  <g id="Ultralight-M" transform="matrix(1 0 0 1 500.556 1126)">
   <path d="M15.5273-60.6934L22.6074-60.6934C24.3652-60.6934 25.6836-62.0605 25.6836-63.7207C25.6836-65.3809 24.3652-66.748 22.6074-66.748L15.5273-66.748C13.8672-66.748 12.4512-65.3809 12.4512-63.7207C12.4512-62.0605 13.8672-60.6934 15.5273-60.6934ZM36.6211-62.5488L104.639-62.5488C105.371-62.5488 105.859-62.9883 105.859-63.7207C105.859-64.4531 105.371-64.9414 104.639-64.9414L36.6211-64.9414C35.8887-64.9414 35.4004-64.4531 35.4004-63.7207C35.4004-62.9883 35.8887-62.5488 36.6211-62.5488ZM15.5273-32.1777L22.6074-32.1777C24.3652-32.1777 25.6836-33.5449 25.6836-35.2051C25.6836-36.8652 24.3652-38.2324 22.6074-38.2324L15.5273-38.2324C13.8672-38.2324 12.4512-36.8652 12.4512-35.2051C12.4512-33.5449 13.8672-32.1777 15.5273-32.1777ZM36.6211-33.9844L104.639-33.9844C105.371-33.9844 105.859-34.4727 105.859-35.2051C105.859-35.9375 105.371-36.377 104.639-36.377L36.6211-36.377C35.8887-36.377 35.4004-35.9375 35.4004-35.2051C35.4004-34.4727 35.8887-33.9844 36.6211-33.9844ZM15.5273-3.66211L22.6074-3.66211C24.3652-3.66211 25.6836-5.0293 25.6836-6.68945C25.6836-8.34961 24.3652-9.66797 22.6074-9.66797L15.5273-9.66797C13.8672-9.66797 12.4512-8.34961 12.4512-6.68945C12.4512-5.0293 13.8672-3.66211 15.5273-3.66211ZM36.6211-5.46875L104.639-5.46875C105.371-5.46875 105.859-5.95703 105.859-6.68945C105.859-7.37305 105.371-7.86133 104.639-7.86133L36.6211-7.86133C35.8887-7.86133 35.4004-7.37305 35.4004-6.68945C35.4004-5.95703 35.8887-5.46875 36.6211-5.46875Z"/>
  </g>
  <g id="Black-S" transform="matrix(1 0 0 1 2879.69 696)">
   <path d="M16.6016-53.6621L23.1445-53.6621C26.8555-53.6621 29.9805-56.7383 29.9805-60.498C29.9805-64.2578 26.8555-67.334 23.1445-67.334L16.6016-67.334C12.8906-67.334 9.76562-64.2578 9.76562-60.498C9.76562-56.7383 12.8906-53.6621 16.6016-53.6621ZM43.7012-54.1504L91.3086-54.1504C94.8242-54.1504 97.6562-56.9336 97.6562-60.498C97.6562-64.0137 94.873-66.8457 91.3086-66.8457L43.7012-66.8457C40.1855-66.8457 37.3535-64.0625 37.3535-60.498C37.3535-56.9824 40.1367-54.1504 43.7012-54.1504ZM16.6016-28.3691L23.1445-28.3691C26.8555-28.3691 29.9805-31.4453 29.9805-35.2051C29.9805-38.9648 26.8555-42.041 23.1445-42.041L16.6016-42.041C12.8906-42.041 9.76562-38.9648 9.76562-35.2051C9.76562-31.4453 12.8906-28.3691 16.6016-28.3691ZM43.7012-28.8574L91.3086-28.8574C94.8242-28.8574 97.6562-31.6406 97.6562-35.2051C97.6562-38.7207 94.873-41.5527 91.3086-41.5527L43.7012-41.5527C40.1855-41.5527 37.3535-38.7695 37.3535-35.2051C37.3535-31.6895 40.1367-28.8574 43.7012-28.8574ZM16.6016-3.07617L23.1445-3.07617C26.8555-3.07617 29.9805-6.15234 29.9805-9.91211C29.9805-13.6719 26.8555-16.748 23.1445-16.748L16.6016-16.748C12.8906-16.748 9.76562-13.6719 9.76562-9.91211C9.76562-6.15234 12.8906-3.07617 16.6016-3.07617ZM43.7012-3.56445L91.3086-3.56445C94.8242-3.56445 97.6562-6.34766 97.6562-9.91211C97.6562-13.4277 94.873-16.2598 91.3086-16.2598L43.7012-16.2598C40.1855-16.2598 37.3535-13.4766 37.3535-9.91211C37.3535-6.39648 40.1367-3.56445 43.7012-3.56445Z"/>
  </g>
  <g id="Heavy-S" transform="matrix(1 0 0 1 2584.15 696)">
   <path d="M15.9668-53.8574L22.5586-53.8574C25.9277-53.8574 28.7109-56.6406 28.7109-60.0098C28.7109-63.4277 25.9277-66.2109 22.5586-66.2109L15.9668-66.2109C12.5977-66.2109 9.76562-63.4277 9.76562-60.0098C9.76562-56.6406 12.5977-53.8574 15.9668-53.8574ZM42.041-54.3457L89.5996-54.3457C92.7734-54.3457 95.3125-56.8359 95.3125-60.0098C95.3125-63.1836 92.8223-65.7227 89.5996-65.7227L42.041-65.7227C38.8672-65.7227 36.377-63.2324 36.377-60.0098C36.377-56.8848 38.8672-54.3457 42.041-54.3457ZM15.9668-29.0039L22.5586-29.0039C25.9277-29.0039 28.7109-31.7871 28.7109-35.2051C28.7109-38.623 25.9277-41.4062 22.5586-41.4062L15.9668-41.4062C12.5977-41.4062 9.76562-38.623 9.76562-35.2051C9.76562-31.7871 12.5977-29.0039 15.9668-29.0039ZM42.041-29.541L89.5996-29.541C92.7734-29.541 95.3125-32.0312 95.3125-35.2051C95.3125-38.3789 92.8223-40.8691 89.5996-40.8691L42.041-40.8691C38.8672-40.8691 36.377-38.3789 36.377-35.2051C36.377-32.0312 38.8672-29.541 42.041-29.541ZM15.9668-4.19922L22.5586-4.19922C25.9277-4.19922 28.7109-6.98242 28.7109-10.4004C28.7109-13.8184 25.9277-16.5527 22.5586-16.5527L15.9668-16.5527C12.5977-16.5527 9.76562-13.8184 9.76562-10.4004C9.76562-6.98242 12.5977-4.19922 15.9668-4.19922ZM42.041-4.6875L89.5996-4.6875C92.7734-4.6875 95.3125-7.17773 95.3125-10.4004C95.3125-13.5254 92.8223-16.0645 89.5996-16.0645L42.041-16.0645C38.8672-16.0645 36.377-13.5742 36.377-10.4004C36.377-7.22656 38.8672-4.6875 42.041-4.6875Z"/>
  </g>
  <g id="Bold-S" transform="matrix(1 0 0 1 2288.78 696)">
   <path d="M15.2344-54.0039L21.875-54.0039C24.8535-54.0039 27.3438-56.4941 27.3438-59.4727C27.3438-62.5 24.8535-64.9902 21.875-64.9902L15.2344-64.9902C12.2559-64.9902 9.76562-62.5 9.76562-59.4727C9.76562-56.4941 12.2559-54.0039 15.2344-54.0039ZM40.1855-54.541L87.6953-54.541C90.4785-54.541 92.627-56.7383 92.627-59.4727C92.627-62.2559 90.4785-64.4531 87.6953-64.4531L40.1855-64.4531C37.4512-64.4531 35.2539-62.2559 35.2539-59.4727C35.2539-56.7383 37.4023-54.541 40.1855-54.541ZM15.2344-29.7363L21.875-29.7363C24.8535-29.7363 27.3438-32.2266 27.3438-35.2051C27.3438-38.2324 24.8535-40.6738 21.875-40.6738L15.2344-40.6738C12.2559-40.6738 9.76562-38.2324 9.76562-35.2051C9.76562-32.2266 12.2559-29.7363 15.2344-29.7363ZM40.1855-30.2734L87.6953-30.2734C90.4785-30.2734 92.627-32.4219 92.627-35.2051C92.627-37.9395 90.4785-40.1367 87.6953-40.1367L40.1855-40.1367C37.4512-40.1367 35.2539-37.9883 35.2539-35.2051C35.2539-32.4707 37.4023-30.2734 40.1855-30.2734ZM15.2344-5.46875L21.875-5.46875C24.8535-5.46875 27.3438-7.91016 27.3438-10.9375C27.3438-13.916 24.8535-16.4062 21.875-16.4062L15.2344-16.4062C12.2559-16.4062 9.76562-13.916 9.76562-10.9375C9.76562-7.91016 12.2559-5.46875 15.2344-5.46875ZM40.1855-5.95703L87.6953-5.95703C90.4785-5.95703 92.627-8.1543 92.627-10.9375C92.627-13.6719 90.4785-15.8691 87.6953-15.8691L40.1855-15.8691C37.4512-15.8691 35.2539-13.6719 35.2539-10.9375C35.2539-8.1543 37.4023-5.95703 40.1855-5.95703Z"/>
  </g>
  <g id="Semibold-S" transform="matrix(1 0 0 1 1992.97 696)">
   <path d="M14.6973-54.1504L21.3867-54.1504C24.1211-54.1504 26.3672-56.3965 26.3672-59.1309C26.3672-61.8652 24.1211-64.1113 21.3867-64.1113L14.6973-64.1113C12.0117-64.1113 9.76562-61.8652 9.76562-59.1309C9.76562-56.3965 12.0117-54.1504 14.6973-54.1504ZM38.916-54.6875L86.377-54.6875C88.8672-54.6875 90.8203-56.6406 90.8203-59.1309C90.8203-61.5723 88.8672-63.5742 86.377-63.5742L38.916-63.5742C36.4258-63.5742 34.4727-61.6211 34.4727-59.1309C34.4727-56.6895 36.4258-54.6875 38.916-54.6875ZM14.6973-30.2246L21.3867-30.2246C24.1211-30.2246 26.3672-32.4707 26.3672-35.2051C26.3672-37.9395 24.1211-40.1855 21.3867-40.1855L14.6973-40.1855C12.0117-40.1855 9.76562-37.9395 9.76562-35.2051C9.76562-32.4707 12.0117-30.2246 14.6973-30.2246ZM38.916-30.7617L86.377-30.7617C88.8672-30.7617 90.8203-32.7148 90.8203-35.2051C90.8203-37.6465 88.8672-39.6484 86.377-39.6484L38.916-39.6484C36.4258-39.6484 34.4727-37.6953 34.4727-35.2051C34.4727-32.7637 36.4258-30.7617 38.916-30.7617ZM14.6973-6.29883L21.3867-6.29883C24.1211-6.29883 26.3672-8.54492 26.3672-11.2793C26.3672-14.0137 24.1211-16.2598 21.3867-16.2598L14.6973-16.2598C12.0117-16.2598 9.76562-14.0137 9.76562-11.2793C9.76562-8.54492 12.0117-6.29883 14.6973-6.29883ZM38.916-6.83594L86.377-6.83594C88.8672-6.83594 90.8203-8.78906 90.8203-11.2793C90.8203-13.7207 88.8672-15.7227 86.377-15.7227L38.916-15.7227C36.4258-15.7227 34.4727-13.7695 34.4727-11.2793C34.4727-8.83789 36.4258-6.83594 38.916-6.83594Z"/>
  </g>
  <g id="Medium-S" transform="matrix(1 0 0 1 1696.95 696)">
   <path d="M14.3066-54.248L21.0449-54.248C23.584-54.248 25.6348-56.3477 25.6348-58.8379C25.6348-61.4258 23.584-63.4277 21.0449-63.4277L14.3066-63.4277C11.8164-63.4277 9.76562-61.4258 9.76562-58.8379C9.76562-56.3477 11.8164-54.248 14.3066-54.248ZM37.9395-54.834L85.4004-54.834C87.6465-54.834 89.4531-56.5918 89.4531-58.8379C89.4531-61.084 87.6465-62.8906 85.4004-62.8906L37.9395-62.8906C35.6934-62.8906 33.8867-61.1328 33.8867-58.8379C33.8867-56.5918 35.6934-54.834 37.9395-54.834ZM14.3066-30.6152L21.0449-30.6152C23.584-30.6152 25.6348-32.666 25.6348-35.2051C25.6348-37.7441 23.584-39.7949 21.0449-39.7949L14.3066-39.7949C11.8164-39.7949 9.76562-37.7441 9.76562-35.2051C9.76562-32.666 11.8164-30.6152 14.3066-30.6152ZM37.9395-31.1523L85.4004-31.1523C87.6465-31.1523 89.4531-32.959 89.4531-35.2051C89.4531-37.4512 87.6465-39.2578 85.4004-39.2578L37.9395-39.2578C35.6934-39.2578 33.8867-37.4512 33.8867-35.2051C33.8867-32.959 35.6934-31.1523 37.9395-31.1523ZM14.3066-6.98242L21.0449-6.98242C23.584-6.98242 25.6348-9.0332 25.6348-11.5723C25.6348-14.1113 23.584-16.1621 21.0449-16.1621L14.3066-16.1621C11.8164-16.1621 9.76562-14.1113 9.76562-11.5723C9.76562-9.0332 11.8164-6.98242 14.3066-6.98242ZM37.9395-7.51953L85.4004-7.51953C87.6465-7.51953 89.4531-9.27734 89.4531-11.5723C89.4531-13.8184 87.6465-15.5762 85.4004-15.5762L37.9395-15.5762C35.6934-15.5762 33.8867-13.8184 33.8867-11.5723C33.8867-9.32617 35.6934-7.51953 37.9395-7.51953Z"/>
  </g>
  <g id="Regular-S" transform="matrix(1 0 0 1 1401.14 696)">
   <path d="M13.8184-54.3945L20.6055-54.3945C22.8516-54.3945 24.707-56.25 24.707-58.4961C24.707-60.791 22.8516-62.5977 20.6055-62.5977L13.8184-62.5977C11.5723-62.5977 9.76562-60.791 9.76562-58.4961C9.76562-56.25 11.5723-54.3945 13.8184-54.3945ZM36.6699-54.9805L84.1309-54.9805C86.084-54.9805 87.6465-56.543 87.6465-58.4961C87.6465-60.4492 86.084-62.0117 84.1309-62.0117L36.6699-62.0117C34.7168-62.0117 33.1543-60.4492 33.1543-58.4961C33.1543-56.543 34.7168-54.9805 36.6699-54.9805ZM13.8184-31.1035L20.6055-31.1035C22.8516-31.1035 24.707-32.959 24.707-35.2051C24.707-37.5 22.8516-39.3066 20.6055-39.3066L13.8184-39.3066C11.5723-39.3066 9.76562-37.5 9.76562-35.2051C9.76562-32.959 11.5723-31.1035 13.8184-31.1035ZM36.6699-31.6895L84.1309-31.6895C86.084-31.6895 87.6465-33.252 87.6465-35.2051C87.6465-37.1582 86.084-38.7207 84.1309-38.7207L36.6699-38.7207C34.7168-38.7207 33.1543-37.1582 33.1543-35.2051C33.1543-33.252 34.7168-31.6895 36.6699-31.6895ZM13.8184-7.8125L20.6055-7.8125C22.8516-7.8125 24.707-9.66797 24.707-11.9141C24.707-14.209 22.8516-16.0156 20.6055-16.0156L13.8184-16.0156C11.5723-16.0156 9.76562-14.209 9.76562-11.9141C9.76562-9.66797 11.5723-7.8125 13.8184-7.8125ZM36.6699-8.39844L84.1309-8.39844C86.084-8.39844 87.6465-9.96094 87.6465-11.9141C87.6465-13.8672 86.084-15.4297 84.1309-15.4297L36.6699-15.4297C34.7168-15.4297 33.1543-13.8672 33.1543-11.9141C33.1543-9.96094 34.7168-8.39844 36.6699-8.39844Z"/>
  </g>
  <g id="Light-S" transform="matrix(1 0 0 1 1105.16 696)">
   <path d="M13.3301-54.6387L19.6777-54.6387C21.6797-54.6387 23.291-56.25 23.291-58.2031C23.291-60.2051 21.6797-61.7676 19.6777-61.7676L13.3301-61.7676C11.377-61.7676 9.76562-60.2051 9.76562-58.2031C9.76562-56.25 11.377-54.6387 13.3301-54.6387ZM34.1797-55.4688L83.4473-55.4688C85.0098-55.4688 86.1816-56.6895 86.1816-58.2031C86.1816-59.7168 85.0098-60.9375 83.4473-60.9375L34.1797-60.9375C32.666-60.9375 31.4453-59.7168 31.4453-58.2031C31.4453-56.6895 32.666-55.4688 34.1797-55.4688ZM13.3301-31.6406L19.6777-31.6406C21.6797-31.6406 23.291-33.252 23.291-35.2051C23.291-37.207 21.6797-38.7695 19.6777-38.7695L13.3301-38.7695C11.377-38.7695 9.76562-37.207 9.76562-35.2051C9.76562-33.252 11.377-31.6406 13.3301-31.6406ZM34.1797-32.4707L83.4473-32.4707C85.0098-32.4707 86.1816-33.6914 86.1816-35.2051C86.1816-36.7188 85.0098-37.9395 83.4473-37.9395L34.1797-37.9395C32.666-37.9395 31.4453-36.7188 31.4453-35.2051C31.4453-33.6914 32.666-32.4707 34.1797-32.4707ZM13.3301-8.64258L19.6777-8.64258C21.6797-8.64258 23.291-10.2539 23.291-12.207C23.291-14.209 21.6797-15.7715 19.6777-15.7715L13.3301-15.7715C11.377-15.7715 9.76562-14.209 9.76562-12.207C9.76562-10.2539 11.377-8.64258 13.3301-8.64258ZM34.1797-9.47266L83.4473-9.47266C85.0098-9.47266 86.1816-10.6934 86.1816-12.207C86.1816-13.7207 85.0098-14.9414 83.4473-14.9414L34.1797-14.9414C32.666-14.9414 31.4453-13.7207 31.4453-12.207C31.4453-10.6934 32.666-9.47266 34.1797-9.47266Z"/>
  </g>
  <g id="Thin-S" transform="matrix(1 0 0 1 809.425 696)">
   <path d="M12.6465-54.9805L18.5059-54.9805C20.1172-54.9805 21.3867-56.25 21.3867-57.8125C21.3867-59.375 20.1172-60.6445 18.5059-60.6445L12.6465-60.6445C11.084-60.6445 9.76562-59.375 9.76562-57.8125C9.76562-56.25 11.084-54.9805 12.6465-54.9805ZM30.9082-56.1523L82.5684-56.1523C83.5449-56.1523 84.2285-56.8359 84.2285-57.8125C84.2285-58.7891 83.5449-59.4727 82.5684-59.4727L30.9082-59.4727C29.9316-59.4727 29.248-58.7891 29.248-57.8125C29.248-56.8359 29.9316-56.1523 30.9082-56.1523ZM12.6465-32.373L18.5059-32.373C20.1172-32.373 21.3867-33.6426 21.3867-35.2051C21.3867-36.7676 20.1172-38.0371 18.5059-38.0371L12.6465-38.0371C11.084-38.0371 9.76562-36.7676 9.76562-35.2051C9.76562-33.6426 11.084-32.373 12.6465-32.373ZM30.9082-33.5449L82.5684-33.5449C83.5449-33.5449 84.2285-34.2285 84.2285-35.2051C84.2285-36.1816 83.5449-36.8652 82.5684-36.8652L30.9082-36.8652C29.9316-36.8652 29.248-36.1816 29.248-35.2051C29.248-34.2285 29.9316-33.5449 30.9082-33.5449ZM12.6465-9.76562L18.5059-9.76562C20.1172-9.76562 21.3867-11.0352 21.3867-12.5977C21.3867-14.1602 20.1172-15.4297 18.5059-15.4297L12.6465-15.4297C11.084-15.4297 9.76562-14.1602 9.76562-12.5977C9.76562-11.0352 11.084-9.76562 12.6465-9.76562ZM30.9082-10.9375L82.5684-10.9375C83.5449-10.9375 84.2285-11.6211 84.2285-12.5977C84.2285-13.5742 83.5449-14.2578 82.5684-14.2578L30.9082-14.2578C29.9316-14.2578 29.248-13.5742 29.248-12.5977C29.248-11.6211 29.9316-10.9375 30.9082-10.9375Z"/>
  </g>
  <g id="Ultralight-S" transform="matrix(1 0 0 1 513.202 696)">
   <path d="M12.3047-55.127L17.9199-55.127C19.3359-55.127 20.459-56.25 20.459-57.6172C20.459-58.9844 19.3359-60.1074 17.9199-60.1074L12.3047-60.1074C10.9375-60.1074 9.76562-58.9844 9.76562-57.6172C9.76562-56.25 10.9375-55.127 12.3047-55.127ZM29.1992-56.4941L82.1289-56.4941C82.8125-56.4941 83.252-56.9824 83.252-57.6172C83.252-58.252 82.8125-58.7402 82.1289-58.7402L29.1992-58.7402C28.5645-58.7402 28.0762-58.252 28.0762-57.6172C28.0762-56.9824 28.5645-56.4941 29.1992-56.4941ZM12.3047-32.7148L17.9199-32.7148C19.3359-32.7148 20.459-33.8379 20.459-35.2051C20.459-36.5723 19.3359-37.6953 17.9199-37.6953L12.3047-37.6953C10.9375-37.6953 9.76562-36.5723 9.76562-35.2051C9.76562-33.8379 10.9375-32.7148 12.3047-32.7148ZM29.1992-34.082L82.1289-34.082C82.8125-34.082 83.252-34.5703 83.252-35.2051C83.252-35.8398 82.8125-36.3281 82.1289-36.3281L29.1992-36.3281C28.5645-36.3281 28.0762-35.8398 28.0762-35.2051C28.0762-34.5703 28.5645-34.082 29.1992-34.082ZM12.3047-10.3027L17.9199-10.3027C19.3359-10.3027 20.459-11.4258 20.459-12.793C20.459-14.1602 19.3359-15.2832 17.9199-15.2832L12.3047-15.2832C10.9375-15.2832 9.76562-14.1602 9.76562-12.793C9.76562-11.4258 10.9375-10.3027 12.3047-10.3027ZM29.1992-11.6699L82.1289-11.6699C82.8125-11.6699 83.252-12.1582 83.252-12.793C83.252-13.4277 82.8125-13.916 82.1289-13.916L29.1992-13.916C28.5645-13.916 28.0762-13.4277 28.0762-12.793C28.0762-12.1582 28.5645-11.6699 29.1992-11.6699Z"/>
  </g>
 </g>
</svg>
