<?xml version="1.0" encoding="UTF-8"?>
<!--Generator: Apple Native CoreSVG 149-->
<!DOCTYPE svg
PUBLIC "-//W3C//DTD SVG 1.1//EN"
       "http://www.w3.org/Graphics/SVG/1.1/DTD/svg11.dtd">
<svg version="1.1" xmlns="http://www.w3.org/2000/svg" xmlns:xlink="http://www.w3.org/1999/xlink" width="3300" height="2200">
 <!--glyph: "uni1002F2.medium", point size: 100.000000, font version: "Version 16.0d18e1", template writer version: "8"-->
 <g id="Notes">
  <rect height="2200" id="artboard" style="fill:white;opacity:1" width="3300" x="0" y="0"/>
  <line id="" style="fill:none;stroke:black;opacity:1;stroke-width:0.5;" x1="263" x2="3036" y1="292" y2="292"/>
  <text style="stroke:none;fill:black;font-family:-apple-system,&quot;SF Pro Display&quot;,&quot;SF Pro Text&quot;,Helvetica,sans-serif;font-weight:bold;" transform="matrix(1 0 0 1 263 322)">Weight/Scale Variations</text>
  <text style="stroke:none;fill:black;font-family:-apple-system,&quot;SF Pro Display&quot;,&quot;SF Pro Text&quot;,Helvetica,sans-serif;text-anchor:middle;" transform="matrix(1 0 0 1 559.711 322)">Ultralight</text>
  <text style="stroke:none;fill:black;font-family:-apple-system,&quot;SF Pro Display&quot;,&quot;SF Pro Text&quot;,Helvetica,sans-serif;text-anchor:middle;" transform="matrix(1 0 0 1 856.422 322)">Thin</text>
  <text style="stroke:none;fill:black;font-family:-apple-system,&quot;SF Pro Display&quot;,&quot;SF Pro Text&quot;,Helvetica,sans-serif;text-anchor:middle;" transform="matrix(1 0 0 1 1153.13 322)">Light</text>
  <text style="stroke:none;fill:black;font-family:-apple-system,&quot;SF Pro Display&quot;,&quot;SF Pro Text&quot;,Helvetica,sans-serif;text-anchor:middle;" transform="matrix(1 0 0 1 1449.84 322)">Regular</text>
  <text style="stroke:none;fill:black;font-family:-apple-system,&quot;SF Pro Display&quot;,&quot;SF Pro Text&quot;,Helvetica,sans-serif;text-anchor:middle;" transform="matrix(1 0 0 1 1746.56 322)">Medium</text>
  <text style="stroke:none;fill:black;font-family:-apple-system,&quot;SF Pro Display&quot;,&quot;SF Pro Text&quot;,Helvetica,sans-serif;text-anchor:middle;" transform="matrix(1 0 0 1 2043.27 322)">Semibold</text>
  <text style="stroke:none;fill:black;font-family:-apple-system,&quot;SF Pro Display&quot;,&quot;SF Pro Text&quot;,Helvetica,sans-serif;text-anchor:middle;" transform="matrix(1 0 0 1 2339.98 322)">Bold</text>
  <text style="stroke:none;fill:black;font-family:-apple-system,&quot;SF Pro Display&quot;,&quot;SF Pro Text&quot;,Helvetica,sans-serif;text-anchor:middle;" transform="matrix(1 0 0 1 2636.69 322)">Heavy</text>
  <text style="stroke:none;fill:black;font-family:-apple-system,&quot;SF Pro Display&quot;,&quot;SF Pro Text&quot;,Helvetica,sans-serif;text-anchor:middle;" transform="matrix(1 0 0 1 2933.4 322)">Black</text>
  <line id="" style="fill:none;stroke:black;opacity:1;stroke-width:0.5;" x1="263" x2="3036" y1="1903" y2="1903"/>
  <g id="" transform="matrix(1 0 0 1 263 1933)">
   <path d="M9.24805 0.830078C13.5547 0.830078 17.1387-2.74414 17.1387-7.05078C17.1387-11.3574 13.5449-14.9316 9.23828-14.9316C4.94141-14.9316 1.36719-11.3574 1.36719-7.05078C1.36719-2.74414 4.95117 0.830078 9.24805 0.830078ZM9.24805-0.654297C5.70312-0.654297 2.87109-3.49609 2.87109-7.05078C2.87109-10.6055 5.69336-13.4473 9.23828-13.4473C12.793-13.4473 15.6348-10.6055 15.6445-7.05078C15.6543-3.49609 12.8027-0.654297 9.24805-0.654297ZM6.39648-6.31836L8.50586-6.31836L8.50586-4.19922C8.50586-3.75977 8.79883-3.45703 9.22852-3.45703C9.67773-3.45703 9.9707-3.75977 9.9707-4.19922L9.9707-6.31836L12.0996-6.31836C12.5391-6.31836 12.8418-6.61133 12.8418-7.04102C12.8418-7.48047 12.5391-7.7832 12.0996-7.7832L9.9707-7.7832L9.9707-9.89258C9.9707-10.3418 9.67773-10.6445 9.22852-10.6445C8.79883-10.6445 8.50586-10.3418 8.50586-9.89258L8.50586-7.7832L6.39648-7.7832C5.94727-7.7832 5.64453-7.48047 5.64453-7.04102C5.64453-6.61133 5.94727-6.31836 6.39648-6.31836Z"/>
  </g>
  <g id="" transform="matrix(1 0 0 1 281.506 1933)">
   <path d="M11.709 2.91016C17.1582 2.91016 21.6699-1.61133 21.6699-7.05078C21.6699-12.5 17.1484-17.0117 11.6992-17.0117C6.25977-17.0117 1.74805-12.5 1.74805-7.05078C1.74805-1.61133 6.26953 2.91016 11.709 2.91016ZM11.709 1.25C7.09961 1.25 3.41797-2.44141 3.41797-7.05078C3.41797-11.6602 7.08984-15.3516 11.6992-15.3516C16.3086-15.3516 20-11.6602 20.0098-7.05078C20.0195-2.44141 16.3184 1.25 11.709 1.25ZM7.98828-6.23047L10.8789-6.23047L10.8789-3.32031C10.8789-2.83203 11.2109-2.5 11.6895-2.5C12.1777-2.5 12.5195-2.83203 12.5195-3.32031L12.5195-6.23047L15.4297-6.23047C15.918-6.23047 16.25-6.5625 16.25-7.04102C16.25-7.5293 15.918-7.87109 15.4297-7.87109L12.5195-7.87109L12.5195-10.7617C12.5195-11.2695 12.1777-11.6016 11.6895-11.6016C11.2109-11.6016 10.8789-11.2598 10.8789-10.7617L10.8789-7.87109L7.98828-7.87109C7.48047-7.87109 7.14844-7.5293 7.14844-7.04102C7.14844-6.5625 7.49023-6.23047 7.98828-6.23047Z"/>
  </g>
  <g id="" transform="matrix(1 0 0 1 304.924 1933)">
   <path d="M14.9707 5.66406C21.9336 5.66406 27.6953-0.0976562 27.6953-7.05078C27.6953-14.0137 21.9238-19.7754 14.9609-19.7754C8.00781-19.7754 2.25586-14.0137 2.25586-7.05078C2.25586-0.0976562 8.01758 5.66406 14.9707 5.66406ZM14.9707 3.84766C8.93555 3.84766 4.08203-1.01562 4.08203-7.05078C4.08203-13.0957 8.92578-17.9492 14.9609-17.9492C21.0059-17.9492 25.8594-13.0957 25.8691-7.05078C25.8789-1.01562 21.0156 3.84766 14.9707 3.84766ZM10.0586-6.14258L14.0625-6.14258L14.0625-2.12891C14.0625-1.5918 14.4336-1.2207 14.9512-1.2207C15.4883-1.2207 15.8594-1.5918 15.8594-2.12891L15.8594-6.14258L19.8828-6.14258C20.4102-6.14258 20.791-6.51367 20.791-7.03125C20.791-7.56836 20.4199-7.94922 19.8828-7.94922L15.8594-7.94922L15.8594-11.9531C15.8594-12.5098 15.4883-12.8809 14.9512-12.8809C14.4336-12.8809 14.0625-12.5 14.0625-11.9531L14.0625-7.94922L10.0586-7.94922C9.50195-7.94922 9.13086-7.56836 9.13086-7.03125C9.13086-6.51367 9.51172-6.14258 10.0586-6.14258Z"/>
  </g>
  <text style="stroke:none;fill:black;font-family:-apple-system,&quot;SF Pro Display&quot;,&quot;SF Pro Text&quot;,Helvetica,sans-serif;font-weight:bold;" transform="matrix(1 0 0 1 263 1953)">Design Variations</text>
  <text style="stroke:none;fill:black;font-family:-apple-system,&quot;SF Pro Display&quot;,&quot;SF Pro Text&quot;,Helvetica,sans-serif;" transform="matrix(1 0 0 1 263 1971)">Symbols are supported in up to nine weights and three scales.</text>
  <text style="stroke:none;fill:black;font-family:-apple-system,&quot;SF Pro Display&quot;,&quot;SF Pro Text&quot;,Helvetica,sans-serif;" transform="matrix(1 0 0 1 263 1989)">For optimal layout with text and other symbols, vertically align</text>
  <text style="stroke:none;fill:black;font-family:-apple-system,&quot;SF Pro Display&quot;,&quot;SF Pro Text&quot;,Helvetica,sans-serif;" transform="matrix(1 0 0 1 263 2007)">symbols with the adjacent text.</text>
  <line id="" style="fill:none;stroke:#00AEEF;stroke-width:0.5;opacity:1.0;" x1="776" x2="776" y1="1919" y2="1933"/>
  <g id="" transform="matrix(1 0 0 1 776 1933)">
   <path d="M3.31055 0.126953C3.82812 0.126953 4.08203-0.0683594 4.26758-0.605469L5.52734-4.0625L11.2891-4.0625L12.5488-0.605469C12.7344-0.0683594 12.9883 0.126953 13.4961 0.126953C14.0137 0.126953 14.3457-0.185547 14.3457-0.673828C14.3457-0.839844 14.3164-0.986328 14.2383-1.20117L9.6582-13.3887C9.43359-13.9941 9.0332-14.2871 8.4082-14.2871C7.80273-14.2871 7.39258-13.9941 7.17773-13.3984L2.59766-1.19141C2.51953-0.976562 2.49023-0.830078 2.49023-0.664062C2.49023-0.175781 2.80273 0.126953 3.31055 0.126953ZM6.00586-5.53711L8.37891-12.1094L8.42773-12.1094L10.8008-5.53711Z"/>
  </g>
  <line id="" style="fill:none;stroke:#00AEEF;stroke-width:0.5;opacity:1.0;" x1="792.836" x2="792.836" y1="1919" y2="1933"/>
  <text style="stroke:none;fill:black;font-family:-apple-system,&quot;SF Pro Display&quot;,&quot;SF Pro Text&quot;,Helvetica,sans-serif;font-weight:bold;" transform="matrix(1 0 0 1 776 1953)">Margins</text>
  <text style="stroke:none;fill:black;font-family:-apple-system,&quot;SF Pro Display&quot;,&quot;SF Pro Text&quot;,Helvetica,sans-serif;" transform="matrix(1 0 0 1 776 1971)">Leading and trailing margins on the left and right side of each symbol</text>
  <text style="stroke:none;fill:black;font-family:-apple-system,&quot;SF Pro Display&quot;,&quot;SF Pro Text&quot;,Helvetica,sans-serif;" transform="matrix(1 0 0 1 776 1989)">can be adjusted by modifying the x-location of the margin guidelines.</text>
  <text style="stroke:none;fill:black;font-family:-apple-system,&quot;SF Pro Display&quot;,&quot;SF Pro Text&quot;,Helvetica,sans-serif;" transform="matrix(1 0 0 1 776 2007)">Modifications are automatically applied proportionally to all</text>
  <text style="stroke:none;fill:black;font-family:-apple-system,&quot;SF Pro Display&quot;,&quot;SF Pro Text&quot;,Helvetica,sans-serif;" transform="matrix(1 0 0 1 776 2025)">scales and weights.</text>
  <g id="" transform="matrix(1 0 0 1 1289 1933)">
   <path d="M2.8418 1.86523L4.54102 3.57422C5.40039 4.44336 6.38672 4.38477 7.31445 3.35938L17.4902-7.85156C17.7539-7.76367 18.0273-7.7832 18.3398-7.8418L19.4043-8.03711L20.0684-7.36328L20.0293-6.80664C19.9902-6.30859 20.1172-5.92773 20.6055-5.44922L21.3672-4.70703C21.8457-4.22852 22.4609-4.19922 22.9297-4.66797L25.8398-7.58789C26.3086-8.05664 26.2891-8.65234 25.8105-9.13086L25.0391-9.89258C24.5605-10.3711 24.1895-10.5273 23.7109-10.4883L23.1348-10.4395L22.4902-11.0742L22.7344-12.1973C22.8613-12.7637 22.7051-13.2031 22.1191-13.7891L19.9219-15.9766C16.582-19.2969 12.1484-19.2188 9.25781-16.3281C8.83789-15.918 8.80859-15.3418 9.04297-14.9512C9.27734-14.5898 9.73633-14.3555 10.3809-14.5215C11.8457-14.8633 13.3691-14.9219 14.7949-13.9844L14.209-12.5293C14.0137-12.0508 13.9844-11.6504 14.1113-11.2891L3.04688-0.898438C2.06055 0.0195312 1.98242 0.996094 2.8418 1.86523ZM10.752-15.957C13.1836-17.7344 16.4746-17.4316 18.7012-15.2051L21.1328-12.793C21.3672-12.5586 21.4062-12.373 21.3379-12.0312L21.0156-10.5469L22.5195-9.0625L23.5059-9.12109C23.7598-9.13086 23.8379-9.11133 24.0332-8.91602L24.6094-8.33984L22.168-5.89844L21.5918-6.47461C21.3965-6.66992 21.3672-6.74805 21.377-7.01172L21.4453-7.98828L19.9512-9.47266L18.4277-9.21875C18.1055-9.15039 17.959-9.17969 17.7148-9.41406L15.7129-11.416C15.459-11.6504 15.4297-11.8164 15.5859-12.1875L16.4648-14.2773C14.9023-15.7324 12.8711-16.3574 10.8398-15.7617C10.6836-15.7227 10.625-15.8496 10.752-15.957ZM5.27344 2.30469L4.10156 1.14258C3.63281 0.683594 3.74023 0.341797 4.14062-0.0195312L14.9512-10.1953L16.416-8.71094L6.42578 2.27539C6.07422 2.67578 5.74219 2.77344 5.27344 2.30469Z"/>
  </g>
  <text style="stroke:none;fill:black;font-family:-apple-system,&quot;SF Pro Display&quot;,&quot;SF Pro Text&quot;,Helvetica,sans-serif;font-weight:bold;" transform="matrix(1 0 0 1 1289 1953)">Exporting</text>
  <text style="stroke:none;fill:black;font-family:-apple-system,&quot;SF Pro Display&quot;,&quot;SF Pro Text&quot;,Helvetica,sans-serif;" transform="matrix(1 0 0 1 1289 1971)">Symbols should be outlined when exporting to ensure the</text>
  <text style="stroke:none;fill:black;font-family:-apple-system,&quot;SF Pro Display&quot;,&quot;SF Pro Text&quot;,Helvetica,sans-serif;" transform="matrix(1 0 0 1 1289 1989)">design is preserved when submitting to Xcode.</text>
  <text id="template-version" style="stroke:none;fill:black;font-family:-apple-system,&quot;SF Pro Display&quot;,&quot;SF Pro Text&quot;,Helvetica,sans-serif;text-anchor:end;" transform="matrix(1 0 0 1 3036 1933)">Template v.2.0</text>
  <text style="stroke:none;fill:black;font-family:-apple-system,&quot;SF Pro Display&quot;,&quot;SF Pro Text&quot;,Helvetica,sans-serif;text-anchor:end;" transform="matrix(1 0 0 1 3036 1951)">Requires Xcode 12 or greater</text>
  <text style="stroke:none;fill:black;font-family:-apple-system,&quot;SF Pro Display&quot;,&quot;SF Pro Text&quot;,Helvetica,sans-serif;text-anchor:end;" transform="matrix(1 0 0 1 3036 1969)">Generated from list.bullet</text>
  <text style="stroke:none;fill:black;font-family:-apple-system,&quot;SF Pro Display&quot;,&quot;SF Pro Text&quot;,Helvetica,sans-serif;text-anchor:end;" transform="matrix(1 0 0 1 3036 1987)">Typeset at 100 points</text>
  <text style="stroke:none;fill:black;font-family:-apple-system,&quot;SF Pro Display&quot;,&quot;SF Pro Text&quot;,Helvetica,sans-serif;" transform="matrix(1 0 0 1 263 726)">Small</text>
  <text style="stroke:none;fill:black;font-family:-apple-system,&quot;SF Pro Display&quot;,&quot;SF Pro Text&quot;,Helvetica,sans-serif;" transform="matrix(1 0 0 1 263 1156)">Medium</text>
  <text style="stroke:none;fill:black;font-family:-apple-system,&quot;SF Pro Display&quot;,&quot;SF Pro Text&quot;,Helvetica,sans-serif;" transform="matrix(1 0 0 1 263 1586)">Large</text>
 </g>
 <g id="Guides">
  <g id="H-reference" style="fill:#27AAE1;stroke:none;" transform="matrix(1 0 0 1 339 696)">
   <path d="M0.976562 0L3.66211 0L12.9883-24.4629L45.752-24.4629L55.127 0L57.7637 0L30.6152-70.459L28.125-70.459ZM29.3457-67.1387L29.4434-67.1387L44.873-26.709L13.8672-26.709Z"/>
  </g>
  <line id="Baseline-S" style="fill:none;stroke:#27AAE1;opacity:1;stroke-width:0.5;" x1="263" x2="3036" y1="696" y2="696"/>
  <line id="Capline-S" style="fill:none;stroke:#27AAE1;opacity:1;stroke-width:0.5;" x1="263" x2="3036" y1="625.541" y2="625.541"/>
  <g id="H-reference" style="fill:#27AAE1;stroke:none;" transform="matrix(1 0 0 1 339 1126)">
   <path d="M0.976562 0L3.66211 0L12.9883-24.4629L45.752-24.4629L55.127 0L57.7637 0L30.6152-70.459L28.125-70.459ZM29.3457-67.1387L29.4434-67.1387L44.873-26.709L13.8672-26.709Z"/>
  </g>
  <line id="Baseline-M" style="fill:none;stroke:#27AAE1;opacity:1;stroke-width:0.5;" x1="263" x2="3036" y1="1126" y2="1126"/>
  <line id="Capline-M" style="fill:none;stroke:#27AAE1;opacity:1;stroke-width:0.5;" x1="263" x2="3036" y1="1055.54" y2="1055.54"/>
  <g id="H-reference" style="fill:#27AAE1;stroke:none;" transform="matrix(1 0 0 1 339 1556)">
   <path d="M0.976562 0L3.66211 0L12.9883-24.4629L45.752-24.4629L55.127 0L57.7637 0L30.6152-70.459L28.125-70.459ZM29.3457-67.1387L29.4434-67.1387L44.873-26.709L13.8672-26.709Z"/>
  </g>
  <line id="Baseline-L" style="fill:none;stroke:#27AAE1;opacity:1;stroke-width:0.5;" x1="263" x2="3036" y1="1556" y2="1556"/>
  <line id="Capline-L" style="fill:none;stroke:#27AAE1;opacity:1;stroke-width:0.5;" x1="263" x2="3036" y1="1485.54" y2="1485.54"/>
  <line id="left-margin" style="fill:none;stroke:#00AEEF;stroke-width:0.5;opacity:1.0;" x1="1388.2" x2="1388.2" y1="1030.79" y2="1150.12"/>
  <line id="right-margin" style="fill:none;stroke:#00AEEF;stroke-width:0.5;opacity:1.0;" x1="1511.49" x2="1511.49" y1="1030.79" y2="1150.12"/>
 </g>
 <g id="Symbols">
  <g id="Black-L" transform="matrix(1 0 0 1 2847.17 1556)">
   <path d="M28.125-63.8672C34.7656-63.8672 40.2344-69.3359 40.2344-75.9766C40.2344-82.6172 34.7656-88.0371 28.125-88.0371C21.5332-88.0371 16.0645-82.6172 16.0645-75.9766C16.0645-69.3359 21.5332-63.8672 28.125-63.8672ZM63.2812-66.6992L147.168-66.6992C152.295-66.6992 156.396-70.8008 156.396-75.9766C156.396-81.1035 152.344-85.2051 147.168-85.2051L63.2812-85.2051C58.1543-85.2051 54.0527-81.1523 54.0527-75.9766C54.0527-70.8496 58.1055-66.6992 63.2812-66.6992ZM28.125-23.0957C34.7656-23.0957 40.2344-28.5645 40.2344-35.2051C40.2344-41.7969 34.7656-47.2656 28.125-47.2656C21.5332-47.2656 16.0645-41.7969 16.0645-35.2051C16.0645-28.5645 21.5332-23.0957 28.125-23.0957ZM63.2812-25.9277L147.168-25.9277C152.295-25.9277 156.396-29.9805 156.396-35.2051C156.396-40.332 152.344-44.4336 147.168-44.4336L63.2812-44.4336C58.1543-44.4336 54.0527-40.3809 54.0527-35.2051C54.0527-30.0781 58.1055-25.9277 63.2812-25.9277ZM28.125 17.6758C34.7656 17.6758 40.2344 12.207 40.2344 5.56641C40.2344-1.02539 34.7656-6.49414 28.125-6.49414C21.5332-6.49414 16.0645-1.02539 16.0645 5.56641C16.0645 12.207 21.5332 17.6758 28.125 17.6758ZM63.2812 14.8438L147.168 14.8438C152.295 14.8438 156.396 10.791 156.396 5.56641C156.396 0.439453 152.344-3.66211 147.168-3.66211L63.2812-3.66211C58.1543-3.66211 54.0527 0.390625 54.0527 5.56641C54.0527 10.6934 58.1055 14.8438 63.2812 14.8438Z"/>
  </g>
  <g id="Heavy-L" transform="matrix(1 0 0 1 2552.19 1556)">
   <path d="M27.0996-64.209C33.1543-64.209 38.1348-69.1895 38.1348-75.2441C38.1348-81.3477 33.1543-86.3281 27.0996-86.3281C21.0449-86.3281 16.0645-81.3477 16.0645-75.2441C16.0645-69.1895 21.0449-64.209 27.0996-64.209ZM60.3516-67.1875L144.824-67.1875C149.365-67.1875 152.93-70.7031 152.93-75.2441C152.93-79.7852 149.365-83.3496 144.824-83.3496L60.3516-83.3496C55.8594-83.3496 52.2949-79.834 52.2949-75.2441C52.2949-70.752 55.8105-67.1875 60.3516-67.1875ZM27.0996-24.1699C33.1543-24.1699 38.1348-29.1016 38.1348-35.2051C38.1348-41.2598 33.1543-46.2402 27.0996-46.2402C21.0449-46.2402 16.0645-41.2598 16.0645-35.2051C16.0645-29.1016 21.0449-24.1699 27.0996-24.1699ZM60.3516-27.0996L144.824-27.0996C149.365-27.0996 152.93-30.6641 152.93-35.2051C152.93-39.6973 149.365-43.2617 144.824-43.2617L60.3516-43.2617C55.8594-43.2617 52.2949-39.7461 52.2949-35.2051C52.2949-30.7129 55.8105-27.0996 60.3516-27.0996ZM27.0996 15.918C33.1543 15.918 38.1348 10.9375 38.1348 4.88281C38.1348-1.17188 33.1543-6.15234 27.0996-6.15234C21.0449-6.15234 16.0645-1.17188 16.0645 4.88281C16.0645 10.9375 21.0449 15.918 27.0996 15.918ZM60.3516 12.9883L144.824 12.9883C149.365 12.9883 152.93 9.42383 152.93 4.88281C152.93 0.390625 149.365-3.17383 144.824-3.17383L60.3516-3.17383C55.8594-3.17383 52.2949 0.341797 52.2949 4.88281C52.2949 9.375 55.8105 12.9883 60.3516 12.9883Z"/>
  </g>
  <g id="Bold-L" transform="matrix(1 0 0 1 2257.43 1556)">
   <path d="M25.9277-64.5996C31.3477-64.5996 35.791-69.043 35.791-74.5117C35.791-79.9316 31.3477-84.375 25.9277-84.375C20.5078-84.375 16.0645-79.9316 16.0645-74.5117C16.0645-69.043 20.5078-64.5996 25.9277-64.5996ZM57.0801-67.7246L142.236-67.7246C146.045-67.7246 149.023-70.6543 149.023-74.5117C149.023-78.2715 146.045-81.25 142.236-81.25L57.0801-81.25C53.2715-81.25 50.293-78.3203 50.293-74.5117C50.293-70.7031 53.2715-67.7246 57.0801-67.7246ZM25.9277-25.3418C31.3477-25.3418 35.791-29.7363 35.791-35.2051C35.791-40.625 31.3477-45.0684 25.9277-45.0684C20.5078-45.0684 16.0645-40.625 16.0645-35.2051C16.0645-29.7363 20.5078-25.3418 25.9277-25.3418ZM57.0801-28.418L142.236-28.418C146.045-28.418 149.023-31.3477 149.023-35.2051C149.023-38.9648 146.045-41.9922 142.236-41.9922L57.0801-41.9922C53.2715-41.9922 50.293-39.0137 50.293-35.2051C50.293-31.3965 53.2715-28.418 57.0801-28.418ZM25.9277 13.9648C31.3477 13.9648 35.791 9.52148 35.791 4.10156C35.791-1.31836 31.3477-5.76172 25.9277-5.76172C20.5078-5.76172 16.0645-1.31836 16.0645 4.10156C16.0645 9.52148 20.5078 13.9648 25.9277 13.9648ZM57.0801 10.8887L142.236 10.8887C146.045 10.8887 149.023 7.91016 149.023 4.10156C149.023 0.341797 146.045-2.68555 142.236-2.68555L57.0801-2.68555C53.2715-2.68555 50.293 0.292969 50.293 4.10156C50.293 7.91016 53.2715 10.8887 57.0801 10.8887Z"/>
  </g>
  <g id="Semibold-L" transform="matrix(1 0 0 1 1962.07 1556)">
   <path d="M25.1465-64.8926C30.127-64.8926 34.1797-68.9453 34.1797-73.9258C34.1797-78.9551 30.127-83.0078 25.1465-83.0078C20.1172-83.0078 16.0645-78.9551 16.0645-73.9258C16.0645-68.9453 20.1172-64.8926 25.1465-64.8926ZM54.834-68.0664L140.43-68.0664C143.75-68.0664 146.338-70.6543 146.338-73.9258C146.338-77.2461 143.75-79.834 140.43-79.834L54.834-79.834C51.5137-79.834 48.9258-77.2461 48.9258-73.9258C48.9258-70.6543 51.5137-68.0664 54.834-68.0664ZM25.1465-26.123C30.127-26.123 34.1797-30.1758 34.1797-35.2051C34.1797-40.1855 30.127-44.2383 25.1465-44.2383C20.1172-44.2383 16.0645-40.1855 16.0645-35.2051C16.0645-30.1758 20.1172-26.123 25.1465-26.123ZM54.834-29.2969L140.43-29.2969C143.75-29.2969 146.338-31.8848 146.338-35.2051C146.338-38.4766 143.75-41.0645 140.43-41.0645L54.834-41.0645C51.5137-41.0645 48.9258-38.5254 48.9258-35.2051C48.9258-31.8848 51.5137-29.2969 54.834-29.2969ZM25.1465 12.6465C30.127 12.6465 34.1797 8.59375 34.1797 3.56445C34.1797-1.41602 30.127-5.51758 25.1465-5.51758C20.1172-5.51758 16.0645-1.41602 16.0645 3.56445C16.0645 8.59375 20.1172 12.6465 25.1465 12.6465ZM54.834 9.47266L140.43 9.47266C143.75 9.47266 146.338 6.88477 146.338 3.56445C146.338 0.292969 143.75-2.29492 140.43-2.29492L54.834-2.29492C51.5137-2.29492 48.9258 0.244141 48.9258 3.56445C48.9258 6.88477 51.5137 9.47266 54.834 9.47266Z"/>
  </g>
  <g id="Medium-L" transform="matrix(1 0 0 1 1666.38 1556)">
   <path d="M24.5117-65.0879C29.1992-65.0879 32.959-68.8477 32.959-73.5352C32.959-78.2227 29.1992-81.9824 24.5117-81.9824C19.873-81.9824 16.0645-78.2227 16.0645-73.5352C16.0645-68.8477 19.873-65.0879 24.5117-65.0879ZM53.125-68.3105L139.062-68.3105C141.992-68.3105 144.287-70.6055 144.287-73.5352C144.287-76.4648 142.041-78.7598 139.062-78.7598L53.125-78.7598C50.1953-78.7598 47.9004-76.4648 47.9004-73.5352C47.9004-70.6055 50.1953-68.3105 53.125-68.3105ZM24.5117-26.709C29.1992-26.709 32.959-30.5176 32.959-35.2051C32.959-39.8438 29.1992-43.6523 24.5117-43.6523C19.873-43.6523 16.0645-39.8438 16.0645-35.2051C16.0645-30.5176 19.873-26.709 24.5117-26.709ZM53.125-29.9805L139.062-29.9805C141.992-29.9805 144.287-32.2266 144.287-35.2051C144.287-38.1348 142.041-40.3809 139.062-40.3809L53.125-40.3809C50.1953-40.3809 47.9004-38.1348 47.9004-35.2051C47.9004-32.2754 50.1953-29.9805 53.125-29.9805ZM24.5117 11.6211C29.1992 11.6211 32.959 7.8125 32.959 3.17383C32.959-1.51367 29.1992-5.27344 24.5117-5.27344C19.873-5.27344 16.0645-1.51367 16.0645 3.17383C16.0645 7.8125 19.873 11.6211 24.5117 11.6211ZM53.125 8.39844L139.062 8.39844C141.992 8.39844 144.287 6.10352 144.287 3.17383C144.287 0.244141 142.041-2.05078 139.062-2.05078L53.125-2.05078C50.1953-2.05078 47.9004 0.244141 47.9004 3.17383C47.9004 6.10352 50.1953 8.39844 53.125 8.39844Z"/>
  </g>
  <g id="Regular-L" transform="matrix(1 0 0 1 1370.99 1556)">
   <path d="M23.7305-65.332C27.9785-65.332 31.3965-68.75 31.3965-72.998C31.3965-77.2461 27.9785-80.6641 23.7305-80.6641C19.4824-80.6641 16.0645-77.2461 16.0645-72.998C16.0645-68.75 19.4824-65.332 23.7305-65.332ZM50.8789-68.7012L137.305-68.7012C139.746-68.7012 141.65-70.5566 141.65-72.998C141.65-75.4395 139.746-77.3438 137.305-77.3438L50.8789-77.3438C48.4375-77.3438 46.582-75.4395 46.582-72.998C46.582-70.5566 48.4375-68.7012 50.8789-68.7012ZM23.7305-27.5391C27.9785-27.5391 31.3965-30.957 31.3965-35.2051C31.3965-39.4531 27.9785-42.8711 23.7305-42.8711C19.4824-42.8711 16.0645-39.4531 16.0645-35.2051C16.0645-30.957 19.4824-27.5391 23.7305-27.5391ZM50.8789-30.8594L137.305-30.8594C139.746-30.8594 141.65-32.7637 141.65-35.2051C141.65-37.6465 139.746-39.502 137.305-39.502L50.8789-39.502C48.4375-39.502 46.582-37.6465 46.582-35.2051C46.582-32.7637 48.4375-30.8594 50.8789-30.8594ZM23.7305 10.3027C27.9785 10.3027 31.3965 6.88477 31.3965 2.63672C31.3965-1.61133 27.9785-5.0293 23.7305-5.0293C19.4824-5.0293 16.0645-1.61133 16.0645 2.63672C16.0645 6.88477 19.4824 10.3027 23.7305 10.3027ZM50.8789 6.93359L137.305 6.93359C139.746 6.93359 141.65 5.07812 141.65 2.63672C141.65 0.195312 139.746-1.70898 137.305-1.70898L50.8789-1.70898C48.4375-1.70898 46.582 0.195312 46.582 2.63672C46.582 5.07812 48.4375 6.93359 50.8789 6.93359Z"/>
  </g>
  <g id="Light-L" transform="matrix(1 0 0 1 1075.2 1556)">
   <path d="M23.3398-65.332C27.3926-65.332 30.6641-68.6035 30.6641-72.6562C30.6641-76.6602 27.3926-79.9316 23.3398-79.9316C19.3359-79.9316 16.0645-76.6602 16.0645-72.6562C16.0645-68.6035 19.3359-65.332 23.3398-65.332ZM49.6094-69.3359L136.475-69.3359C138.379-69.3359 139.795-70.752 139.795-72.6562C139.795-74.5117 138.379-75.9277 136.475-75.9277L49.6094-75.9277C47.7051-75.9277 46.2891-74.5117 46.2891-72.6562C46.2891-70.752 47.7051-69.3359 49.6094-69.3359ZM23.3398-27.8809C27.3926-27.8809 30.6641-31.1523 30.6641-35.2051C30.6641-39.209 27.3926-42.4805 23.3398-42.4805C19.3359-42.4805 16.0645-39.209 16.0645-35.2051C16.0645-31.1523 19.3359-27.8809 23.3398-27.8809ZM49.6094-31.8848L136.475-31.8848C138.379-31.8848 139.795-33.3008 139.795-35.2051C139.795-37.0605 138.379-38.4766 136.475-38.4766L49.6094-38.4766C47.7051-38.4766 46.2891-37.0605 46.2891-35.2051C46.2891-33.3008 47.7051-31.8848 49.6094-31.8848ZM23.3398 9.57031C27.3926 9.57031 30.6641 6.29883 30.6641 2.24609C30.6641-1.75781 27.3926-5.0293 23.3398-5.0293C19.3359-5.0293 16.0645-1.75781 16.0645 2.24609C16.0645 6.29883 19.3359 9.57031 23.3398 9.57031ZM49.6094 5.56641L136.475 5.56641C138.379 5.56641 139.795 4.15039 139.795 2.24609C139.795 0.390625 138.379-1.02539 136.475-1.02539L49.6094-1.02539C47.7051-1.02539 46.2891 0.390625 46.2891 2.24609C46.2891 4.15039 47.7051 5.56641 49.6094 5.56641Z"/>
  </g>
  <g id="Thin-L" transform="matrix(1 0 0 1 779.713 1556)">
   <path d="M22.8516-65.332C26.6602-65.332 29.6875-68.3594 29.6875-72.168C29.6875-75.9277 26.6602-78.9551 22.8516-78.9551C19.0918-78.9551 16.0645-75.9277 16.0645-72.168C16.0645-68.3594 19.0918-65.332 22.8516-65.332ZM47.9004-70.166L135.4-70.166C136.523-70.166 137.354-70.9961 137.354-72.168C137.354-73.291 136.523-74.1211 135.4-74.1211L47.9004-74.1211C46.7285-74.1211 45.8984-73.291 45.8984-72.168C45.8984-70.9961 46.7285-70.166 47.9004-70.166ZM22.8516-28.3691C26.6602-28.3691 29.6875-31.3965 29.6875-35.2051C29.6875-38.9648 26.6602-41.9922 22.8516-41.9922C19.0918-41.9922 16.0645-38.9648 16.0645-35.2051C16.0645-31.3965 19.0918-28.3691 22.8516-28.3691ZM47.9004-33.2031L135.4-33.2031C136.523-33.2031 137.354-34.0332 137.354-35.2051C137.354-36.3281 136.523-37.1582 135.4-37.1582L47.9004-37.1582C46.7285-37.1582 45.8984-36.3281 45.8984-35.2051C45.8984-34.0332 46.7285-33.2031 47.9004-33.2031ZM22.8516 8.59375C26.6602 8.59375 29.6875 5.56641 29.6875 1.75781C29.6875-2.00195 26.6602-5.0293 22.8516-5.0293C19.0918-5.0293 16.0645-2.00195 16.0645 1.75781C16.0645 5.56641 19.0918 8.59375 22.8516 8.59375ZM47.9004 3.75977L135.4 3.75977C136.523 3.75977 137.354 2.92969 137.354 1.75781C137.354 0.634766 136.523-0.195312 135.4-0.195312L47.9004-0.195312C46.7285-0.195312 45.8984 0.634766 45.8984 1.75781C45.8984 2.92969 46.7285 3.75977 47.9004 3.75977Z"/>
  </g>
  <g id="Ultralight-L" transform="matrix(1 0 0 1 483.637 1556)">
   <path d="M22.6074-65.332C26.2695-65.332 29.1504-68.2617 29.1504-71.9238C29.1504-75.5371 26.2695-78.4668 22.6074-78.4668C18.9941-78.4668 16.0645-75.5371 16.0645-71.9238C16.0645-68.2617 18.9941-65.332 22.6074-65.332ZM47.0215-70.6055L134.814-70.6055C135.596-70.6055 136.084-71.0938 136.084-71.9238C136.084-72.7051 135.596-73.1934 134.814-73.1934L47.0215-73.1934C46.2402-73.1934 45.752-72.7051 45.752-71.9238C45.752-71.0938 46.2402-70.6055 47.0215-70.6055ZM22.6074-28.6133C26.2695-28.6133 29.1504-31.543 29.1504-35.2051C29.1504-38.8184 26.2695-41.748 22.6074-41.748C18.9941-41.748 16.0645-38.8184 16.0645-35.2051C16.0645-31.543 18.9941-28.6133 22.6074-28.6133ZM47.0215-33.9355L134.814-33.9355C135.596-33.9355 136.084-34.4238 136.084-35.2051C136.084-35.9863 135.596-36.4746 134.814-36.4746L47.0215-36.4746C46.2402-36.4746 45.752-35.9863 45.752-35.2051C45.752-34.4238 46.2402-33.9355 47.0215-33.9355ZM22.6074 8.05664C26.2695 8.05664 29.1504 5.17578 29.1504 1.51367C29.1504-2.09961 26.2695-5.0293 22.6074-5.0293C18.9941-5.0293 16.0645-2.09961 16.0645 1.51367C16.0645 5.17578 18.9941 8.05664 22.6074 8.05664ZM47.0215 2.7832L134.814 2.7832C135.596 2.7832 136.084 2.29492 136.084 1.51367C136.084 0.732422 135.596 0.244141 134.814 0.244141L47.0215 0.244141C46.2402 0.244141 45.752 0.732422 45.752 1.51367C45.752 2.29492 46.2402 2.7832 47.0215 2.7832Z"/>
  </g>
  <g id="Black-M" transform="matrix(1 0 0 1 2864.7 1126)">
   <path d="M22.998-56.9824C28.8086-56.9824 33.5938-61.7676 33.5938-67.5293C33.5938-73.3398 28.8086-78.125 22.998-78.125C17.2363-78.125 12.4512-73.3398 12.4512-67.5293C12.4512-61.7676 17.2363-56.9824 22.998-56.9824ZM52.2949-59.375L116.748-59.375C121.289-59.375 124.951-62.9395 124.951-67.5293C124.951-72.0703 121.338-75.7324 116.748-75.7324L52.2949-75.7324C47.7539-75.7324 44.0918-72.1191 44.0918-67.5293C44.0918-62.9883 47.7051-59.375 52.2949-59.375ZM22.998-24.6094C28.8086-24.6094 33.5938-29.3945 33.5938-35.2051C33.5938-40.9668 28.8086-45.752 22.998-45.752C17.2363-45.752 12.4512-40.9668 12.4512-35.2051C12.4512-29.3945 17.2363-24.6094 22.998-24.6094ZM52.2949-27.002L116.748-27.002C121.289-27.002 124.951-30.6152 124.951-35.2051C124.951-39.7461 121.338-43.4082 116.748-43.4082L52.2949-43.4082C47.7539-43.4082 44.0918-39.7949 44.0918-35.2051C44.0918-30.6641 47.7051-27.002 52.2949-27.002ZM22.998 7.71484C28.8086 7.71484 33.5938 2.92969 33.5938-2.83203C33.5938-8.64258 28.8086-13.4277 22.998-13.4277C17.2363-13.4277 12.4512-8.64258 12.4512-2.83203C12.4512 2.92969 17.2363 7.71484 22.998 7.71484ZM52.2949 5.32227L116.748 5.32227C121.289 5.32227 124.951 1.75781 124.951-2.83203C124.951-7.37305 121.338-11.0352 116.748-11.0352L52.2949-11.0352C47.7539-11.0352 44.0918-7.4707 44.0918-2.83203C44.0918 1.66016 47.7051 5.32227 52.2949 5.32227Z"/>
  </g>
  <g id="Heavy-M" transform="matrix(1 0 0 1 2569.65 1126)">
   <path d="M21.9727-57.373C27.1973-57.373 31.4941-61.6699 31.4941-66.8945C31.4941-72.1191 27.1973-76.416 21.9727-76.416C16.748-76.416 12.4512-72.1191 12.4512-66.8945C12.4512-61.6699 16.748-57.373 21.9727-57.373ZM49.4141-59.7168L114.404-59.7168C118.408-59.7168 121.631-62.8418 121.631-66.8945C121.631-70.8496 118.457-74.0723 114.404-74.0723L49.4141-74.0723C45.459-74.0723 42.2363-70.8984 42.2363-66.8945C42.2363-62.8906 45.4102-59.7168 49.4141-59.7168ZM21.9727-25.6836C27.1973-25.6836 31.4941-29.9805 31.4941-35.2051C31.4941-40.4297 27.1973-44.7266 21.9727-44.7266C16.748-44.7266 12.4512-40.4297 12.4512-35.2051C12.4512-29.9805 16.748-25.6836 21.9727-25.6836ZM49.4141-28.0273L114.404-28.0273C118.408-28.0273 121.631-31.1523 121.631-35.2051C121.631-39.1602 118.457-42.3828 114.404-42.3828L49.4141-42.3828C45.459-42.3828 42.2363-39.209 42.2363-35.2051C42.2363-31.2012 45.4102-28.0273 49.4141-28.0273ZM21.9727 6.00586C27.1973 6.00586 31.4941 1.70898 31.4941-3.51562C31.4941-8.74023 27.1973-13.0371 21.9727-13.0371C16.748-13.0371 12.4512-8.74023 12.4512-3.51562C12.4512 1.70898 16.748 6.00586 21.9727 6.00586ZM49.4141 3.66211L114.404 3.66211C118.408 3.66211 121.631 0.537109 121.631-3.51562C121.631-7.51953 118.457-10.6934 114.404-10.6934L49.4141-10.6934C45.459-10.6934 42.2363-7.56836 42.2363-3.51562C42.2363 0.488281 45.4102 3.66211 49.4141 3.66211Z"/>
  </g>
  <g id="Bold-M" transform="matrix(1 0 0 1 2274.82 1126)">
   <path d="M20.8008-57.7637C25.3906-57.7637 29.1504-61.5234 29.1504-66.1133C29.1504-70.7031 25.3906-74.5117 20.8008-74.5117C16.2109-74.5117 12.4512-70.7031 12.4512-66.1133C12.4512-61.5234 16.2109-57.7637 20.8008-57.7637ZM46.2402-60.0586L111.816-60.0586C115.186-60.0586 117.871-62.7441 117.871-66.1133C117.871-69.4824 115.234-72.168 111.816-72.168L46.2402-72.168C42.8711-72.168 40.1855-69.5312 40.1855-66.1133C40.1855-62.7441 42.8223-60.0586 46.2402-60.0586ZM20.8008-26.8555C25.3906-26.8555 29.1504-30.6152 29.1504-35.2051C29.1504-39.7949 25.3906-43.5547 20.8008-43.5547C16.2109-43.5547 12.4512-39.7949 12.4512-35.2051C12.4512-30.6152 16.2109-26.8555 20.8008-26.8555ZM46.2402-29.1504L111.816-29.1504C115.186-29.1504 117.871-31.7871 117.871-35.2051C117.871-38.5742 115.234-41.2598 111.816-41.2598L46.2402-41.2598C42.8711-41.2598 40.1855-38.623 40.1855-35.2051C40.1855-31.8359 42.8223-29.1504 46.2402-29.1504ZM20.8008 4.10156C25.3906 4.10156 29.1504 0.341797 29.1504-4.24805C29.1504-8.83789 25.3906-12.6465 20.8008-12.6465C16.2109-12.6465 12.4512-8.83789 12.4512-4.24805C12.4512 0.341797 16.2109 4.10156 20.8008 4.10156ZM46.2402 1.80664L111.816 1.80664C115.186 1.80664 117.871-0.878906 117.871-4.24805C117.871-7.61719 115.234-10.3027 111.816-10.3027L46.2402-10.3027C42.8711-10.3027 40.1855-7.66602 40.1855-4.24805C40.1855-0.878906 42.8223 1.80664 46.2402 1.80664Z"/>
  </g>
  <g id="Semibold-M" transform="matrix(1 0 0 1 1979.38 1126)">
   <path d="M20.0195-58.0566C24.1699-58.0566 27.5391-61.4746 27.5391-65.625C27.5391-69.7754 24.1699-73.1934 20.0195-73.1934C15.8203-73.1934 12.4512-69.7754 12.4512-65.625C12.4512-61.4746 15.8203-58.0566 20.0195-58.0566ZM44.043-60.3516L110.01-60.3516C112.988-60.3516 115.332-62.6465 115.332-65.625C115.332-68.5547 112.988-70.8984 110.01-70.8984L44.043-70.8984C41.0645-70.8984 38.7207-68.6035 38.7207-65.625C38.7207-62.6465 41.0645-60.3516 44.043-60.3516ZM20.0195-27.6367C24.1699-27.6367 27.5391-31.0547 27.5391-35.2051C27.5391-39.3555 24.1699-42.7734 20.0195-42.7734C15.8203-42.7734 12.4512-39.3555 12.4512-35.2051C12.4512-31.0547 15.8203-27.6367 20.0195-27.6367ZM44.043-29.9316L110.01-29.9316C112.988-29.9316 115.332-32.2266 115.332-35.2051C115.332-38.1348 112.988-40.4785 110.01-40.4785L44.043-40.4785C41.0645-40.4785 38.7207-38.1836 38.7207-35.2051C38.7207-32.2266 41.0645-29.9316 44.043-29.9316ZM20.0195 2.7832C24.1699 2.7832 27.5391-0.634766 27.5391-4.78516C27.5391-8.93555 24.1699-12.3535 20.0195-12.3535C15.8203-12.3535 12.4512-8.93555 12.4512-4.78516C12.4512-0.634766 15.8203 2.7832 20.0195 2.7832ZM44.043 0.488281L110.01 0.488281C112.988 0.488281 115.332-1.80664 115.332-4.78516C115.332-7.71484 112.988-10.0586 110.01-10.0586L44.043-10.0586C41.0645-10.0586 38.7207-7.76367 38.7207-4.78516C38.7207-1.80664 41.0645 0.488281 44.043 0.488281Z"/>
  </g>
  <g id="Medium-M" transform="matrix(1 0 0 1 1683.64 1126)">
   <path d="M19.3848-58.3008C23.2422-58.3008 26.3184-61.377 26.3184-65.2344C26.3184-69.043 23.2422-72.168 19.3848-72.168C15.5762-72.168 12.4512-69.043 12.4512-65.2344C12.4512-61.377 15.5762-58.3008 19.3848-58.3008ZM42.334-60.5469L108.643-60.5469C111.279-60.5469 113.379-62.5977 113.379-65.2344C113.379-67.8711 111.328-69.9219 108.643-69.9219L42.334-69.9219C39.7461-69.9219 37.6465-67.8711 37.6465-65.2344C37.6465-62.5977 39.6973-60.5469 42.334-60.5469ZM19.3848-28.2715C23.2422-28.2715 26.3184-31.3477 26.3184-35.2051C26.3184-39.0137 23.2422-42.1387 19.3848-42.1387C15.5762-42.1387 12.4512-39.0137 12.4512-35.2051C12.4512-31.3477 15.5762-28.2715 19.3848-28.2715ZM42.334-30.5176L108.643-30.5176C111.279-30.5176 113.379-32.5684 113.379-35.2051C113.379-37.8418 111.328-39.8926 108.643-39.8926L42.334-39.8926C39.7461-39.8926 37.6465-37.8418 37.6465-35.2051C37.6465-32.5684 39.6973-30.5176 42.334-30.5176ZM19.3848 1.75781C23.2422 1.75781 26.3184-1.31836 26.3184-5.17578C26.3184-8.98438 23.2422-12.1094 19.3848-12.1094C15.5762-12.1094 12.4512-8.98438 12.4512-5.17578C12.4512-1.31836 15.5762 1.75781 19.3848 1.75781ZM42.334-0.488281L108.643-0.488281C111.279-0.488281 113.379-2.53906 113.379-5.17578C113.379-7.8125 111.328-9.86328 108.643-9.86328L42.334-9.86328C39.7461-9.86328 37.6465-7.8125 37.6465-5.17578C37.6465-2.53906 39.6973-0.488281 42.334-0.488281Z"/>
  </g>
  <g id="Regular-M" transform="matrix(1 0 0 1 1388.2 1126)">
   <path d="M18.6035-58.5938C22.0215-58.5938 24.7559-61.3281 24.7559-64.6973C24.7559-68.1152 22.0215-70.8496 18.6035-70.8496C15.1855-70.8496 12.4512-68.1152 12.4512-64.6973C12.4512-61.3281 15.1855-58.5938 18.6035-58.5938ZM40.1855-60.791L106.885-60.791C109.082-60.791 110.84-62.5 110.84-64.6973C110.84-66.9434 109.082-68.6523 106.885-68.6523L40.1855-68.6523C37.9395-68.6523 36.2305-66.9434 36.2305-64.6973C36.2305-62.5 37.9395-60.791 40.1855-60.791ZM18.6035-29.0527C22.0215-29.0527 24.7559-31.7871 24.7559-35.2051C24.7559-38.623 22.0215-41.3574 18.6035-41.3574C15.1855-41.3574 12.4512-38.623 12.4512-35.2051C12.4512-31.7871 15.1855-29.0527 18.6035-29.0527ZM40.1855-31.25L106.885-31.25C109.082-31.25 110.84-33.0078 110.84-35.2051C110.84-37.4023 109.082-39.1113 106.885-39.1113L40.1855-39.1113C37.9395-39.1113 36.2305-37.4023 36.2305-35.2051C36.2305-33.0078 37.9395-31.25 40.1855-31.25ZM18.6035 0.488281C22.0215 0.488281 24.7559-2.29492 24.7559-5.66406C24.7559-9.08203 22.0215-11.8164 18.6035-11.8164C15.1855-11.8164 12.4512-9.08203 12.4512-5.66406C12.4512-2.29492 15.1855 0.488281 18.6035 0.488281ZM40.1855-1.75781L106.885-1.75781C109.082-1.75781 110.84-3.4668 110.84-5.66406C110.84-7.91016 109.082-9.61914 106.885-9.61914L40.1855-9.61914C37.9395-9.61914 36.2305-7.91016 36.2305-5.66406C36.2305-3.4668 37.9395-1.75781 40.1855-1.75781Z"/>
  </g>
  <g id="Light-M" transform="matrix(1 0 0 1 1092.32 1126)">
   <path d="M18.2617-58.5938C21.4844-58.5938 24.0723-61.1816 24.0723-64.4043C24.0723-67.627 21.4844-70.2148 18.2617-70.2148C15.0391-70.2148 12.4512-67.627 12.4512-64.4043C12.4512-61.1816 15.0391-58.5938 18.2617-58.5938ZM39.0137-61.377L106.152-61.377C107.861-61.377 109.18-62.6953 109.18-64.4043C109.18-66.1133 107.861-67.3828 106.152-67.3828L39.0137-67.3828C37.3047-67.3828 35.9863-66.1133 35.9863-64.4043C35.9863-62.6953 37.3047-61.377 39.0137-61.377ZM18.2617-29.3945C21.4844-29.3945 24.0723-31.9824 24.0723-35.2051C24.0723-38.4277 21.4844-41.0156 18.2617-41.0156C15.0391-41.0156 12.4512-38.4277 12.4512-35.2051C12.4512-31.9824 15.0391-29.3945 18.2617-29.3945ZM39.0137-32.1777L106.152-32.1777C107.861-32.1777 109.18-33.4961 109.18-35.2051C109.18-36.9141 107.861-38.2324 106.152-38.2324L39.0137-38.2324C37.3047-38.2324 35.9863-36.9141 35.9863-35.2051C35.9863-33.4961 37.3047-32.1777 39.0137-32.1777ZM18.2617-0.195312C21.4844-0.195312 24.0723-2.7832 24.0723-6.00586C24.0723-9.22852 21.4844-11.8164 18.2617-11.8164C15.0391-11.8164 12.4512-9.22852 12.4512-6.00586C12.4512-2.7832 15.0391-0.195312 18.2617-0.195312ZM39.0137-2.97852L106.152-2.97852C107.861-2.97852 109.18-4.29688 109.18-6.00586C109.18-7.71484 107.861-9.0332 106.152-9.0332L39.0137-9.0332C37.3047-9.0332 35.9863-7.71484 35.9863-6.00586C35.9863-4.29688 37.3047-2.97852 39.0137-2.97852Z"/>
  </g>
  <g id="Thin-M" transform="matrix(1 0 0 1 796.705 1126)">
   <path d="M17.8223-58.5938C20.8008-58.5938 23.1934-60.9863 23.1934-63.9648C23.1934-66.9434 20.8008-69.3359 17.8223-69.3359C14.8438-69.3359 12.4512-66.9434 12.4512-63.9648C12.4512-60.9863 14.8438-58.5938 17.8223-58.5938ZM37.5-62.1582L105.176-62.1582C106.201-62.1582 106.982-62.8906 106.982-63.9648C106.982-64.9902 106.201-65.7715 105.176-65.7715L37.5-65.7715C36.4258-65.7715 35.6445-64.9902 35.6445-63.9648C35.6445-62.8906 36.4258-62.1582 37.5-62.1582ZM17.8223-29.834C20.8008-29.834 23.1934-32.2266 23.1934-35.2051C23.1934-38.1836 20.8008-40.5762 17.8223-40.5762C14.8438-40.5762 12.4512-38.1836 12.4512-35.2051C12.4512-32.2266 14.8438-29.834 17.8223-29.834ZM37.5-33.3984L105.176-33.3984C106.201-33.3984 106.982-34.1309 106.982-35.2051C106.982-36.2793 106.201-37.0117 105.176-37.0117L37.5-37.0117C36.4258-37.0117 35.6445-36.2793 35.6445-35.2051C35.6445-34.1309 36.4258-33.3984 37.5-33.3984ZM17.8223-1.07422C20.8008-1.07422 23.1934-3.4668 23.1934-6.44531C23.1934-9.42383 20.8008-11.8164 17.8223-11.8164C14.8438-11.8164 12.4512-9.42383 12.4512-6.44531C12.4512-3.4668 14.8438-1.07422 17.8223-1.07422ZM37.5-4.63867L105.176-4.63867C106.201-4.63867 106.982-5.37109 106.982-6.44531C106.982-7.51953 106.201-8.25195 105.176-8.25195L37.5-8.25195C36.4258-8.25195 35.6445-7.51953 35.6445-6.44531C35.6445-5.37109 36.4258-4.63867 37.5-4.63867Z"/>
  </g>
  <g id="Ultralight-M" transform="matrix(1 0 0 1 500.556 1126)">
   <path d="M17.627-58.5938C20.459-58.5938 22.7539-60.8887 22.7539-63.7207C22.7539-66.6016 20.459-68.8965 17.627-68.8965C14.7461-68.8965 12.4512-66.6016 12.4512-63.7207C12.4512-60.8887 14.7461-58.5938 17.627-58.5938ZM36.6699-62.5488L104.639-62.5488C105.371-62.5488 105.859-62.9883 105.859-63.7207C105.859-64.4531 105.371-64.9414 104.639-64.9414L36.6699-64.9414C35.9863-64.9414 35.498-64.4531 35.498-63.7207C35.498-62.9883 35.9863-62.5488 36.6699-62.5488ZM17.627-30.0293C20.459-30.0293 22.7539-32.3242 22.7539-35.2051C22.7539-38.0371 20.459-40.332 17.627-40.332C14.7461-40.332 12.4512-38.0371 12.4512-35.2051C12.4512-32.3242 14.7461-30.0293 17.627-30.0293ZM36.6699-33.9844L104.639-33.9844C105.371-33.9844 105.859-34.4727 105.859-35.2051C105.859-35.9375 105.371-36.377 104.639-36.377L36.6699-36.377C35.9863-36.377 35.498-35.9375 35.498-35.2051C35.498-34.4727 35.9863-33.9844 36.6699-33.9844ZM17.627-1.51367C20.459-1.51367 22.7539-3.80859 22.7539-6.68945C22.7539-9.52148 20.459-11.8164 17.627-11.8164C14.7461-11.8164 12.4512-9.52148 12.4512-6.68945C12.4512-3.80859 14.7461-1.51367 17.627-1.51367ZM36.6699-5.46875L104.639-5.46875C105.371-5.46875 105.859-5.95703 105.859-6.68945C105.859-7.37305 105.371-7.86133 104.639-7.86133L36.6699-7.86133C35.9863-7.86133 35.498-7.37305 35.498-6.68945C35.498-5.95703 35.9863-5.46875 36.6699-5.46875Z"/>
  </g>
  <g id="Black-S" transform="matrix(1 0 0 1 2879.69 696)">
   <path d="M17.9688-52.2949C22.4609-52.2949 26.1719-56.0059 26.1719-60.498C26.1719-64.9902 22.4609-68.7012 17.9688-68.7012C13.4766-68.7012 9.76562-64.9902 9.76562-60.498C9.76562-56.0059 13.4766-52.2949 17.9688-52.2949ZM40.7715-54.1504L91.3086-54.1504C94.8242-54.1504 97.6562-56.9336 97.6562-60.498C97.6562-64.0137 94.873-66.8457 91.3086-66.8457L40.7715-66.8457C37.2559-66.8457 34.4238-64.0625 34.4238-60.498C34.4238-56.9824 37.207-54.1504 40.7715-54.1504ZM17.9688-27.002C22.4609-27.002 26.1719-30.7129 26.1719-35.2051C26.1719-39.6973 22.4609-43.4082 17.9688-43.4082C13.4766-43.4082 9.76562-39.6973 9.76562-35.2051C9.76562-30.7129 13.4766-27.002 17.9688-27.002ZM40.7715-28.8574L91.3086-28.8574C94.8242-28.8574 97.6562-31.6406 97.6562-35.2051C97.6562-38.7207 94.873-41.5527 91.3086-41.5527L40.7715-41.5527C37.2559-41.5527 34.4238-38.7695 34.4238-35.2051C34.4238-31.6895 37.207-28.8574 40.7715-28.8574ZM17.9688-1.70898C22.4609-1.70898 26.1719-5.41992 26.1719-9.91211C26.1719-14.4043 22.4609-18.1152 17.9688-18.1152C13.4766-18.1152 9.76562-14.4043 9.76562-9.91211C9.76562-5.41992 13.4766-1.70898 17.9688-1.70898ZM40.7715-3.56445L91.3086-3.56445C94.8242-3.56445 97.6562-6.34766 97.6562-9.91211C97.6562-13.4277 94.873-16.2598 91.3086-16.2598L40.7715-16.2598C37.2559-16.2598 34.4238-13.4766 34.4238-9.91211C34.4238-6.39648 37.207-3.56445 40.7715-3.56445Z"/>
  </g>
  <g id="Heavy-S" transform="matrix(1 0 0 1 2584.15 696)">
   <path d="M17.1875-52.5879C21.2891-52.5879 24.6582-55.957 24.6582-60.0098C24.6582-64.1113 21.2891-67.4805 17.1875-67.4805C13.1348-67.4805 9.76562-64.1113 9.76562-60.0098C9.76562-55.957 13.1348-52.5879 17.1875-52.5879ZM38.7207-54.3457L89.5996-54.3457C92.7734-54.3457 95.3125-56.8359 95.3125-60.0098C95.3125-63.1836 92.8223-65.7227 89.5996-65.7227L38.7207-65.7227C35.5469-65.7227 33.0078-63.2324 33.0078-60.0098C33.0078-56.8848 35.5469-54.3457 38.7207-54.3457ZM17.1875-27.7832C21.2891-27.7832 24.6582-31.1035 24.6582-35.2051C24.6582-39.3066 21.2891-42.627 17.1875-42.627C13.1348-42.627 9.76562-39.3066 9.76562-35.2051C9.76562-31.1035 13.1348-27.7832 17.1875-27.7832ZM38.7207-29.541L89.5996-29.541C92.7734-29.541 95.3125-32.0312 95.3125-35.2051C95.3125-38.3789 92.8223-40.8691 89.5996-40.8691L38.7207-40.8691C35.5469-40.8691 33.0078-38.3789 33.0078-35.2051C33.0078-32.0312 35.5469-29.541 38.7207-29.541ZM17.1875-2.92969C21.2891-2.92969 24.6582-6.29883 24.6582-10.4004C24.6582-14.4531 21.2891-17.8223 17.1875-17.8223C13.1348-17.8223 9.76562-14.4531 9.76562-10.4004C9.76562-6.29883 13.1348-2.92969 17.1875-2.92969ZM38.7207-4.6875L89.5996-4.6875C92.7734-4.6875 95.3125-7.17773 95.3125-10.4004C95.3125-13.5254 92.8223-16.0645 89.5996-16.0645L38.7207-16.0645C35.5469-16.0645 33.0078-13.5742 33.0078-10.4004C33.0078-7.22656 35.5469-4.6875 38.7207-4.6875Z"/>
  </g>
  <g id="Bold-S" transform="matrix(1 0 0 1 2288.78 696)">
   <path d="M16.3574-52.9297C19.9707-52.9297 22.9492-55.8594 22.9492-59.4727C22.9492-63.1348 19.9707-66.0645 16.3574-66.0645C12.7441-66.0645 9.76562-63.1348 9.76562-59.4727C9.76562-55.8594 12.7441-52.9297 16.3574-52.9297ZM36.4258-54.541L87.6953-54.541C90.4785-54.541 92.627-56.7383 92.627-59.4727C92.627-62.2559 90.4785-64.4531 87.6953-64.4531L36.4258-64.4531C33.6426-64.4531 31.4941-62.2559 31.4941-59.4727C31.4941-56.7383 33.6426-54.541 36.4258-54.541ZM16.3574-28.6133C19.9707-28.6133 22.9492-31.5918 22.9492-35.2051C22.9492-38.8184 19.9707-41.7969 16.3574-41.7969C12.7441-41.7969 9.76562-38.8184 9.76562-35.2051C9.76562-31.5918 12.7441-28.6133 16.3574-28.6133ZM36.4258-30.2734L87.6953-30.2734C90.4785-30.2734 92.627-32.4219 92.627-35.2051C92.627-37.9395 90.4785-40.1367 87.6953-40.1367L36.4258-40.1367C33.6426-40.1367 31.4941-37.9883 31.4941-35.2051C31.4941-32.4707 33.6426-30.2734 36.4258-30.2734ZM16.3574-4.3457C19.9707-4.3457 22.9492-7.27539 22.9492-10.9375C22.9492-14.5508 19.9707-17.5293 16.3574-17.5293C12.7441-17.5293 9.76562-14.5508 9.76562-10.9375C9.76562-7.27539 12.7441-4.3457 16.3574-4.3457ZM36.4258-5.95703L87.6953-5.95703C90.4785-5.95703 92.627-8.1543 92.627-10.9375C92.627-13.6719 90.4785-15.8691 87.6953-15.8691L36.4258-15.8691C33.6426-15.8691 31.4941-13.6719 31.4941-10.9375C31.4941-8.1543 33.6426-5.95703 36.4258-5.95703Z"/>
  </g>
  <g id="Semibold-S" transform="matrix(1 0 0 1 1992.97 696)">
   <path d="M15.7715-53.125C19.0918-53.125 21.7773-55.8105 21.7773-59.1309C21.7773-62.4512 19.0918-65.1367 15.7715-65.1367C12.4512-65.1367 9.76562-62.4512 9.76562-59.1309C9.76562-55.8105 12.4512-53.125 15.7715-53.125ZM34.8145-54.6875L86.377-54.6875C88.8672-54.6875 90.8203-56.6406 90.8203-59.1309C90.8203-61.5723 88.8672-63.5742 86.377-63.5742L34.8145-63.5742C32.373-63.5742 30.4199-61.6211 30.4199-59.1309C30.4199-56.6895 32.3242-54.6875 34.8145-54.6875ZM15.7715-29.1992C19.0918-29.1992 21.7773-31.8848 21.7773-35.2051C21.7773-38.5254 19.0918-41.2109 15.7715-41.2109C12.4512-41.2109 9.76562-38.5254 9.76562-35.2051C9.76562-31.8848 12.4512-29.1992 15.7715-29.1992ZM34.8145-30.7617L86.377-30.7617C88.8672-30.7617 90.8203-32.7148 90.8203-35.2051C90.8203-37.6465 88.8672-39.6484 86.377-39.6484L34.8145-39.6484C32.373-39.6484 30.4199-37.6953 30.4199-35.2051C30.4199-32.7637 32.3242-30.7617 34.8145-30.7617ZM15.7715-5.27344C19.0918-5.27344 21.7773-7.95898 21.7773-11.2793C21.7773-14.5996 19.0918-17.2852 15.7715-17.2852C12.4512-17.2852 9.76562-14.5996 9.76562-11.2793C9.76562-7.95898 12.4512-5.27344 15.7715-5.27344ZM34.8145-6.83594L86.377-6.83594C88.8672-6.83594 90.8203-8.78906 90.8203-11.2793C90.8203-13.7207 88.8672-15.7227 86.377-15.7227L34.8145-15.7227C32.373-15.7227 30.4199-13.7695 30.4199-11.2793C30.4199-8.83789 32.3242-6.83594 34.8145-6.83594Z"/>
  </g>
  <g id="Medium-S" transform="matrix(1 0 0 1 1696.95 696)">
   <path d="M15.332-53.3203C18.4082-53.3203 20.8984-55.8105 20.8984-58.8379C20.8984-61.9141 18.4082-64.4043 15.332-64.4043C12.2559-64.4043 9.76562-61.9141 9.76562-58.8379C9.76562-55.8105 12.2559-53.3203 15.332-53.3203ZM33.5938-54.834L85.4004-54.834C87.6465-54.834 89.4531-56.5918 89.4531-58.8379C89.4531-61.084 87.6465-62.8906 85.4004-62.8906L33.5938-62.8906C31.3477-62.8906 29.5898-61.1328 29.5898-58.8379C29.5898-56.5918 31.3477-54.834 33.5938-54.834ZM15.332-29.6387C18.4082-29.6387 20.8984-32.1289 20.8984-35.2051C20.8984-38.2812 18.4082-40.7715 15.332-40.7715C12.2559-40.7715 9.76562-38.2812 9.76562-35.2051C9.76562-32.1289 12.2559-29.6387 15.332-29.6387ZM33.5938-31.1523L85.4004-31.1523C87.6465-31.1523 89.4531-32.959 89.4531-35.2051C89.4531-37.4512 87.6465-39.2578 85.4004-39.2578L33.5938-39.2578C31.3477-39.2578 29.5898-37.4512 29.5898-35.2051C29.5898-32.959 31.3477-31.1523 33.5938-31.1523ZM15.332-6.00586C18.4082-6.00586 20.8984-8.49609 20.8984-11.5723C20.8984-14.5996 18.4082-17.1387 15.332-17.1387C12.2559-17.1387 9.76562-14.5996 9.76562-11.5723C9.76562-8.49609 12.2559-6.00586 15.332-6.00586ZM33.5938-7.51953L85.4004-7.51953C87.6465-7.51953 89.4531-9.27734 89.4531-11.5723C89.4531-13.8184 87.6465-15.5762 85.4004-15.5762L33.5938-15.5762C31.3477-15.5762 29.5898-13.8184 29.5898-11.5723C29.5898-9.32617 31.3477-7.51953 33.5938-7.51953Z"/>
  </g>
  <g id="Regular-S" transform="matrix(1 0 0 1 1401.14 696)">
   <path d="M14.7461-53.5156C17.4805-53.5156 19.7266-55.7617 19.7266-58.4961C19.7266-61.2305 17.4805-63.4766 14.7461-63.4766C12.0117-63.4766 9.76562-61.2305 9.76562-58.4961C9.76562-55.7617 12.0117-53.5156 14.7461-53.5156ZM32.0312-54.9805L84.1309-54.9805C86.084-54.9805 87.6465-56.543 87.6465-58.4961C87.6465-60.4492 86.084-62.0117 84.1309-62.0117L32.0312-62.0117C30.0781-62.0117 28.5156-60.4492 28.5156-58.4961C28.5156-56.543 30.0781-54.9805 32.0312-54.9805ZM14.7461-30.2246C17.4805-30.2246 19.7266-32.4707 19.7266-35.2051C19.7266-37.9395 17.4805-40.1855 14.7461-40.1855C12.0117-40.1855 9.76562-37.9395 9.76562-35.2051C9.76562-32.4707 12.0117-30.2246 14.7461-30.2246ZM32.0312-31.6895L84.1309-31.6895C86.084-31.6895 87.6465-33.252 87.6465-35.2051C87.6465-37.1582 86.084-38.7207 84.1309-38.7207L32.0312-38.7207C30.0781-38.7207 28.5156-37.1582 28.5156-35.2051C28.5156-33.252 30.0781-31.6895 32.0312-31.6895ZM14.7461-6.93359C17.4805-6.93359 19.7266-9.17969 19.7266-11.9141C19.7266-14.6484 17.4805-16.8945 14.7461-16.8945C12.0117-16.8945 9.76562-14.6484 9.76562-11.9141C9.76562-9.17969 12.0117-6.93359 14.7461-6.93359ZM32.0312-8.39844L84.1309-8.39844C86.084-8.39844 87.6465-9.96094 87.6465-11.9141C87.6465-13.8672 86.084-15.4297 84.1309-15.4297L32.0312-15.4297C30.0781-15.4297 28.5156-13.8672 28.5156-11.9141C28.5156-9.96094 30.0781-8.39844 32.0312-8.39844Z"/>
  </g>
  <g id="Light-S" transform="matrix(1 0 0 1 1105.16 696)">
   <path d="M14.4531-53.5156C17.041-53.5156 19.1406-55.6152 19.1406-58.2031C19.1406-60.791 17.041-62.8906 14.4531-62.8906C11.8652-62.8906 9.76562-60.791 9.76562-58.2031C9.76562-55.6152 11.8652-53.5156 14.4531-53.5156ZM31.0059-55.4688L83.4473-55.4688C85.0098-55.4688 86.1816-56.6895 86.1816-58.2031C86.1816-59.7168 85.0098-60.9375 83.4473-60.9375L31.0059-60.9375C29.4922-60.9375 28.3203-59.7168 28.3203-58.2031C28.3203-56.6895 29.4922-55.4688 31.0059-55.4688ZM14.4531-30.5176C17.041-30.5176 19.1406-32.6172 19.1406-35.2051C19.1406-37.793 17.041-39.8926 14.4531-39.8926C11.8652-39.8926 9.76562-37.793 9.76562-35.2051C9.76562-32.6172 11.8652-30.5176 14.4531-30.5176ZM31.0059-32.4707L83.4473-32.4707C85.0098-32.4707 86.1816-33.6914 86.1816-35.2051C86.1816-36.7188 85.0098-37.9395 83.4473-37.9395L31.0059-37.9395C29.4922-37.9395 28.3203-36.7188 28.3203-35.2051C28.3203-33.6914 29.4922-32.4707 31.0059-32.4707ZM14.4531-7.51953C17.041-7.51953 19.1406-9.61914 19.1406-12.207C19.1406-14.7949 17.041-16.8945 14.4531-16.8945C11.8652-16.8945 9.76562-14.7949 9.76562-12.207C9.76562-9.61914 11.8652-7.51953 14.4531-7.51953ZM31.0059-9.47266L83.4473-9.47266C85.0098-9.47266 86.1816-10.6934 86.1816-12.207C86.1816-13.7207 85.0098-14.9414 83.4473-14.9414L31.0059-14.9414C29.4922-14.9414 28.3203-13.7207 28.3203-12.207C28.3203-10.6934 29.4922-9.47266 31.0059-9.47266Z"/>
  </g>
  <g id="Thin-S" transform="matrix(1 0 0 1 809.425 696)">
   <path d="M14.0625-53.5156C16.4551-53.5156 18.3594-55.4199 18.3594-57.8125C18.3594-60.2051 16.4551-62.1094 14.0625-62.1094C11.6699-62.1094 9.76562-60.2051 9.76562-57.8125C9.76562-55.4199 11.6699-53.5156 14.0625-53.5156ZM29.6875-56.1523L82.5684-56.1523C83.5449-56.1523 84.2285-56.8359 84.2285-57.8125C84.2285-58.7891 83.5449-59.4727 82.5684-59.4727L29.6875-59.4727C28.7109-59.4727 28.0273-58.7891 28.0273-57.8125C28.0273-56.8359 28.7109-56.1523 29.6875-56.1523ZM14.0625-30.9082C16.4551-30.9082 18.3594-32.8125 18.3594-35.2051C18.3594-37.5977 16.4551-39.502 14.0625-39.502C11.6699-39.502 9.76562-37.5977 9.76562-35.2051C9.76562-32.8125 11.6699-30.9082 14.0625-30.9082ZM29.6875-33.5449L82.5684-33.5449C83.5449-33.5449 84.2285-34.2285 84.2285-35.2051C84.2285-36.1816 83.5449-36.8652 82.5684-36.8652L29.6875-36.8652C28.7109-36.8652 28.0273-36.1816 28.0273-35.2051C28.0273-34.2285 28.7109-33.5449 29.6875-33.5449ZM14.0625-8.30078C16.4551-8.30078 18.3594-10.2051 18.3594-12.5977C18.3594-14.9902 16.4551-16.8945 14.0625-16.8945C11.6699-16.8945 9.76562-14.9902 9.76562-12.5977C9.76562-10.2051 11.6699-8.30078 14.0625-8.30078ZM29.6875-10.9375L82.5684-10.9375C83.5449-10.9375 84.2285-11.6211 84.2285-12.5977C84.2285-13.5742 83.5449-14.2578 82.5684-14.2578L29.6875-14.2578C28.7109-14.2578 28.0273-13.5742 28.0273-12.5977C28.0273-11.6211 28.7109-10.9375 29.6875-10.9375Z"/>
  </g>
  <g id="Ultralight-S" transform="matrix(1 0 0 1 513.202 696)">
   <path d="M13.8672-53.5156C16.1133-53.5156 17.9688-55.3223 17.9688-57.6172C17.9688-59.8633 16.1133-61.7188 13.8672-61.7188C11.5723-61.7188 9.76562-59.8633 9.76562-57.6172C9.76562-55.3223 11.5723-53.5156 13.8672-53.5156ZM28.9551-56.4941L82.1289-56.4941C82.8125-56.4941 83.252-56.9824 83.252-57.6172C83.252-58.252 82.8125-58.7402 82.1289-58.7402L28.9551-58.7402C28.3203-58.7402 27.8809-58.252 27.8809-57.6172C27.8809-56.9824 28.3203-56.4941 28.9551-56.4941ZM13.8672-31.1035C16.1133-31.1035 17.9688-32.9102 17.9688-35.2051C17.9688-37.5 16.1133-39.3066 13.8672-39.3066C11.5723-39.3066 9.76562-37.5 9.76562-35.2051C9.76562-32.9102 11.5723-31.1035 13.8672-31.1035ZM28.9551-34.082L82.1289-34.082C82.8125-34.082 83.252-34.5703 83.252-35.2051C83.252-35.8398 82.8125-36.3281 82.1289-36.3281L28.9551-36.3281C28.3203-36.3281 27.8809-35.8398 27.8809-35.2051C27.8809-34.5703 28.3203-34.082 28.9551-34.082ZM13.8672-8.69141C16.1133-8.69141 17.9688-10.5469 17.9688-12.793C17.9688-15.0879 16.1133-16.8945 13.8672-16.8945C11.5723-16.8945 9.76562-15.0879 9.76562-12.793C9.76562-10.5469 11.5723-8.69141 13.8672-8.69141ZM28.9551-11.6699L82.1289-11.6699C82.8125-11.6699 83.252-12.1582 83.252-12.793C83.252-13.4277 82.8125-13.916 82.1289-13.916L28.9551-13.916C28.3203-13.916 27.8809-13.4277 27.8809-12.793C27.8809-12.1582 28.3203-11.6699 28.9551-11.6699Z"/>
  </g>
 </g>
</svg>
